<svg id="svg" version="1.1" xmlns="http://www.w3.org/2000/svg" xmlns:xlink="http://www.w3.org/1999/xlink" width="400" height="400" viewBox="0, 0, 400,400"><g id="svgg"><path id="path0" d="M197.519 65.414 C 197.402 65.532,194.357 65.798,190.753 66.006 C 171.230 67.133,149.991 75.079,140.626 84.759 C 138.279 87.184,139.094 87.170,144.299 84.694 C 164.156 75.248,194.328 71.026,217.800 74.410 C 219.340 74.632,221.950 75.002,223.600 75.232 C 234.082 76.693,244.820 78.992,254.500 81.847 C 257.959 82.868,251.384 76.896,246.200 74.310 C 237.354 69.895,199.885 63.048,197.519 65.414 M142.200 88.711 C 139.168 89.348,137.469 91.902,139.784 92.342 C 140.727 92.521,143.268 91.233,142.959 90.733 C 142.839 90.539,142.889 90.427,143.070 90.485 C 143.540 90.635,146.000 89.562,146.000 89.207 C 146.000 89.044,145.549 88.997,144.998 89.103 C 144.446 89.208,143.771 89.125,143.498 88.919 C 143.224 88.712,142.640 88.619,142.200 88.711 M292.000 110.261 C 292.000 110.404,293.582 112.159,295.515 114.161 C 309.388 128.527,322.661 154.710,327.236 176.739 C 329.747 188.828,331.237 199.549,332.041 211.300 C 332.565 218.975,332.713 219.516,333.819 217.828 C 339.806 208.690,337.123 173.786,329.082 156.200 C 328.076 154.000,327.122 151.660,326.961 151.000 C 325.299 144.161,315.375 129.005,306.844 120.276 C 301.325 114.628,292.000 108.337,292.000 110.261 M287.917 112.145 C 287.159 112.720,288.660 115.600,289.718 115.600 C 289.987 115.600,290.427 115.952,290.696 116.382 C 290.964 116.811,291.560 117.365,292.020 117.611 C 292.839 118.049,292.842 118.037,292.182 117.029 C 291.787 116.425,291.604 115.629,291.741 115.105 C 292.202 113.340,289.301 111.093,287.917 112.145 M97.111 114.509 C 87.045 120.876,70.574 148.491,67.387 164.346 C 66.873 166.906,66.176 169.771,65.838 170.714 C 62.719 179.436,62.005 196.596,64.209 209.833 C 65.570 218.003,70.675 229.641,69.853 222.700 C 67.423 202.170,69.491 181.943,76.030 162.281 C 80.282 149.495,90.773 128.352,98.199 117.600 C 102.032 112.050,101.844 111.516,97.111 114.509 M200.906 136.634 C 191.756 138.176,180.671 150.135,179.381 159.855 C 179.115 161.862,179.135 161.913,180.614 163.047 C 181.441 163.681,183.819 165.618,185.899 167.351 L 189.680 170.502 193.140 169.446 C 197.205 168.205,200.519 168.094,204.197 169.074 L 206.725 169.747 209.663 167.249 C 211.278 165.875,213.950 163.930,215.600 162.927 C 219.401 160.617,219.287 160.823,218.999 156.800 C 218.414 148.618,214.798 141.301,209.462 137.502 C 207.867 136.366,204.516 136.026,200.906 136.634 M150.245 160.845 C 141.043 163.005,138.370 177.211,144.771 189.942 C 149.374 199.097,156.687 205.014,166.800 207.766 C 173.515 209.592,173.317 209.795,171.437 203.000 C 169.152 194.738,170.660 184.998,175.140 179.086 C 176.818 176.872,177.644 176.117,181.365 173.400 C 182.839 172.324,182.538 171.793,179.090 169.371 C 168.227 161.746,158.570 158.891,150.245 160.845 M229.151 163.531 C 224.159 164.695,214.951 169.586,214.234 171.456 C 214.111 171.775,214.951 172.460,216.436 173.251 C 225.630 178.152,230.114 190.133,227.245 202.132 C 226.130 206.794,226.061 206.552,228.427 206.271 C 230.864 205.983,239.787 203.004,241.197 202.008 C 241.748 201.619,243.663 200.566,245.452 199.670 C 253.560 195.605,259.923 188.214,261.594 180.918 C 264.097 169.993,245.101 159.813,229.151 163.531 M196.000 174.642 C 189.264 176.446,188.429 180.462,193.255 187.838 C 198.158 195.331,198.864 200.757,195.377 204.143 C 193.609 205.861,192.660 208.130,192.986 209.865 C 193.298 211.528,193.565 211.527,195.758 209.853 C 198.667 207.633,201.343 207.880,203.581 210.577 C 204.842 212.096,205.934 210.504,205.439 207.868 C 205.219 206.697,203.449 204.176,200.794 201.253 C 200.177 200.574,200.056 200.184,200.367 199.873 C 200.605 199.635,200.800 198.867,200.800 198.166 C 200.800 195.945,202.080 192.810,204.689 188.643 C 210.032 180.108,209.391 176.476,202.216 174.618 C 199.361 173.878,198.845 173.880,196.000 174.642 M180.166 182.255 C 173.631 189.190,174.897 202.974,183.075 213.933 C 186.183 218.098,186.569 218.356,187.862 217.142 C 189.165 215.918,189.101 215.730,186.448 213.011 C 178.931 205.307,176.673 193.312,180.888 183.488 C 181.883 181.171,181.616 180.717,180.166 182.255 M216.922 181.852 C 217.055 182.263,217.517 183.590,217.950 184.800 C 221.625 195.077,219.121 206.150,211.442 213.583 C 209.330 215.628,209.253 215.934,210.538 217.142 C 211.831 218.356,212.217 218.098,215.325 213.933 C 222.762 203.966,224.389 193.880,219.999 184.944 C 218.829 182.561,216.349 180.069,216.922 181.852 M184.801 189.100 C 182.754 196.141,186.230 211.574,188.390 205.030 C 188.639 204.276,189.463 202.847,190.221 201.854 C 192.070 199.433,192.089 197.464,190.295 194.355 C 186.096 187.079,185.543 186.550,184.801 189.100 M210.793 189.855 C 207.296 195.516,206.810 196.568,206.805 198.476 C 206.802 199.508,206.962 200.453,207.161 200.576 C 207.359 200.698,208.185 201.799,208.997 203.022 C 212.032 207.594,214.813 202.949,214.279 194.200 C 213.858 187.309,213.015 186.259,210.793 189.855 M243.593 207.580 C 239.757 209.608,231.172 212.089,225.600 212.779 C 222.892 213.114,222.475 213.288,221.300 214.569 C 219.556 216.473,219.556 217.393,221.300 217.029 C 229.346 215.352,230.890 216.675,228.176 222.922 C 226.004 227.921,223.200 231.229,218.390 234.466 L 217.400 235.132 220.555 238.330 C 223.657 241.475,224.615 242.071,228.600 243.338 C 229.700 243.687,232.220 244.559,234.200 245.276 C 238.686 246.899,246.512 247.189,250.288 245.872 C 261.061 242.115,260.322 221.260,248.993 209.334 C 246.390 206.594,245.811 206.406,243.593 207.580 M148.071 211.188 C 142.397 215.573,138.779 220.810,137.649 226.271 C 135.151 238.351,157.971 248.906,172.900 242.575 C 174.165 242.039,176.325 241.126,177.700 240.548 C 183.085 238.281,184.537 236.594,182.100 235.435 C 177.142 233.078,173.351 229.277,170.846 224.153 C 167.449 217.205,168.332 215.525,174.791 216.645 C 178.243 217.244,178.640 217.203,178.287 216.284 C 178.147 215.917,176.754 215.573,174.114 215.253 C 167.000 214.391,160.262 212.347,155.351 209.562 C 152.515 207.953,152.152 208.034,148.071 211.188 M193.784 218.721 C 187.730 224.701,188.060 224.523,184.312 223.818 C 176.752 222.396,175.617 223.022,179.293 226.582 C 188.013 235.027,210.367 235.048,219.070 226.618 C 223.013 222.799,222.184 222.334,214.088 223.828 C 210.350 224.518,210.723 224.719,204.635 218.727 C 201.770 215.907,199.323 213.600,199.196 213.600 C 199.070 213.600,196.635 215.904,193.784 218.721 M74.100 220.665 C 73.825 220.776,73.600 221.122,73.600 221.433 C 73.600 221.745,73.439 222.000,73.243 222.000 C 72.738 222.000,72.382 223.087,72.654 223.798 C 72.781 224.126,73.034 224.303,73.217 224.189 C 73.401 224.076,73.736 224.302,73.963 224.692 C 74.285 225.245,74.380 225.269,74.394 224.800 C 74.410 224.267,74.459 224.267,74.830 224.800 C 75.135 225.239,75.187 224.917,75.025 223.600 C 74.902 222.610,74.790 221.485,74.776 221.100 C 74.762 220.715,74.716 220.414,74.675 220.432 C 74.634 220.449,74.375 220.554,74.100 220.665 M314.067 257.526 C 313.729 257.985,313.648 258.008,313.815 257.600 C 313.953 257.261,313.791 257.330,313.442 257.759 C 313.103 258.176,312.920 258.671,313.036 258.859 C 313.152 259.047,313.036 259.200,312.777 259.200 C 312.496 259.200,312.395 259.538,312.526 260.040 C 312.647 260.501,312.633 260.766,312.494 260.628 C 312.356 260.489,311.919 261.042,311.523 261.856 C 311.127 262.670,310.892 263.426,311.002 263.535 C 311.111 263.644,311.200 263.513,311.200 263.243 C 311.200 262.973,311.371 262.858,311.580 262.988 C 311.789 263.117,312.154 262.859,312.391 262.416 C 312.629 261.972,313.245 261.504,313.760 261.374 C 315.226 261.006,315.848 259.505,315.140 258.043 C 314.620 256.971,314.514 256.919,314.067 257.526 M316.193 263.944 C 315.757 264.683,314.182 267.361,312.694 269.896 C 305.256 282.564,293.035 295.948,278.400 307.453 C 268.025 315.609,244.539 328.026,229.659 333.223 C 224.647 334.973,224.846 335.510,230.650 335.892 C 242.198 336.654,272.032 323.759,283.479 313.060 C 285.195 311.455,287.680 309.360,289.000 308.404 C 301.402 299.421,317.927 273.380,317.117 264.096 L 316.987 262.600 316.193 263.944 M82.800 270.623 C 82.800 275.934,86.538 282.989,94.021 291.800 C 105.184 304.943,115.509 314.302,123.075 318.136 C 124.172 318.693,125.864 319.752,126.835 320.491 C 134.093 326.012,150.401 332.205,162.896 334.183 C 169.290 335.196,179.600 334.820,179.600 333.574 C 179.600 333.193,179.284 333.109,175.200 332.408 C 144.903 327.209,111.623 305.016,86.263 273.100 C 82.741 268.666,82.800 268.709,82.800 270.623 M179.528 328.605 C 178.811 329.323,180.270 330.728,181.975 330.962 C 184.008 331.241,185.856 330.096,184.906 329.146 C 184.417 328.657,179.928 328.205,179.528 328.605 " stroke="none" fill="#f6f1ec" fill-rule="evenodd"></path><path id="path1" d="M191.000 59.246 C 168.247 61.378,150.219 67.967,138.278 78.516 C 130.909 85.025,130.562 94.103,137.727 92.926 C 139.176 92.688,139.266 92.619,138.402 92.408 C 137.832 92.269,137.352 91.829,137.281 91.382 C 137.214 90.952,136.950 90.182,136.696 89.670 C 135.315 86.896,142.685 79.917,152.119 75.066 C 171.109 65.300,196.025 61.815,218.600 65.768 C 240.290 69.566,249.742 73.066,255.589 79.464 C 259.381 83.613,258.779 84.829,253.767 83.144 C 244.455 80.015,227.984 76.806,213.200 75.241 C 192.753 73.076,167.145 76.551,149.401 83.900 C 146.605 85.058,144.760 86.239,146.307 85.881 C 146.856 85.754,147.476 85.933,147.878 86.336 C 148.647 87.104,149.214 87.182,149.856 86.608 C 150.188 86.310,150.191 86.125,149.867 85.922 C 149.623 85.769,149.563 85.504,149.733 85.333 C 150.129 84.938,150.827 86.033,150.508 86.549 C 150.369 86.774,150.556 86.826,150.955 86.673 C 151.387 86.507,151.545 86.566,151.380 86.832 C 151.237 87.064,150.867 87.158,150.560 87.040 C 150.252 86.922,150.000 87.019,150.000 87.255 C 150.000 87.492,149.775 87.602,149.500 87.501 C 149.225 87.399,148.671 87.633,148.269 88.021 C 147.685 88.584,148.211 88.495,150.869 87.583 C 160.738 84.195,176.213 80.993,187.400 80.024 C 204.607 78.534,230.489 81.578,250.286 87.420 C 260.607 90.466,262.637 90.066,262.181 85.076 C 261.601 78.729,259.564 75.494,253.609 71.466 C 241.645 63.374,210.925 57.378,191.000 59.246 M161.933 104.153 C 159.140 104.797,158.271 105.143,152.000 108.114 C 141.719 112.984,137.352 113.374,135.399 109.599 C 134.737 108.318,133.379 107.762,131.989 108.204 C 130.708 108.610,129.793 111.127,128.789 117.000 C 127.681 123.484,126.958 125.122,122.786 130.593 C 118.277 136.508,116.594 139.496,115.234 144.000 C 111.940 154.912,112.606 160.700,117.243 161.452 C 119.159 161.763,120.037 160.943,124.224 154.928 C 129.771 146.962,134.641 141.387,140.587 136.200 C 153.761 124.707,161.512 120.873,176.943 118.213 C 180.550 117.592,181.359 114.558,178.980 110.576 C 175.616 104.945,169.120 102.498,161.933 104.153 M288.731 104.231 C 285.703 105.163,284.088 108.870,285.968 110.571 C 286.706 111.239,286.798 111.203,288.321 109.633 C 290.328 107.566,291.088 107.564,295.092 109.617 C 307.286 115.869,323.182 135.582,328.358 150.871 C 328.978 152.702,330.140 155.498,330.940 157.085 C 334.473 164.091,337.796 182.450,338.636 199.600 C 339.065 208.368,336.615 217.837,333.060 221.151 C 331.127 222.953,330.800 222.245,330.800 216.269 C 330.800 204.440,327.926 183.990,324.381 170.600 C 319.594 152.519,309.300 132.405,297.815 118.692 C 295.887 116.390,295.691 116.362,295.745 118.400 C 295.781 119.784,295.909 120.000,296.693 120.000 C 297.192 120.000,297.600 120.242,297.600 120.538 C 297.600 121.094,296.106 122.655,295.852 122.364 C 295.370 121.812,294.649 120.137,294.748 119.800 C 294.813 119.580,294.731 119.535,294.566 119.701 C 294.400 119.866,293.895 119.686,293.443 119.301 C 292.927 118.860,293.034 119.120,293.731 120.000 C 297.028 124.163,302.446 132.235,304.579 136.164 C 308.288 142.996,309.824 146.012,311.728 150.200 C 319.825 168.007,324.496 189.642,325.613 214.503 C 325.838 219.509,326.190 224.047,326.395 224.587 C 327.318 227.014,329.633 227.892,331.557 226.545 C 332.071 226.185,333.571 225.351,334.890 224.692 C 339.640 222.318,342.303 215.860,343.751 203.200 C 344.654 195.304,340.265 166.335,336.785 157.234 C 327.481 132.895,314.218 114.863,299.504 106.546 C 294.670 103.813,291.972 103.234,288.731 104.231 M225.400 104.989 C 225.180 105.058,223.709 105.340,222.132 105.615 C 215.506 106.773,212.093 110.893,215.192 113.992 C 215.617 114.417,218.357 115.501,221.282 116.401 C 246.826 124.263,263.701 136.351,272.374 153.000 C 275.439 158.883,277.623 159.492,281.431 155.525 C 287.956 148.727,286.269 139.821,276.523 129.613 C 267.636 120.304,265.876 116.408,269.198 113.402 C 270.229 112.468,270.223 110.790,269.184 109.675 C 268.186 108.604,266.325 108.545,260.635 109.402 C 253.808 110.431,252.305 110.279,245.040 107.822 C 237.144 105.152,228.743 103.940,225.400 104.989 M96.790 107.713 C 87.376 111.652,79.015 122.283,68.094 144.200 C 54.899 170.680,52.613 204.706,62.659 225.087 C 66.624 233.129,75.322 234.749,75.140 227.411 C 75.107 226.085,75.006 225.490,74.915 226.088 C 74.745 227.201,73.090 227.992,70.920 227.998 C 68.494 228.004,64.528 219.055,62.767 209.600 C 60.986 200.039,61.521 181.403,63.811 173.178 C 64.511 170.665,65.684 165.852,66.593 161.760 C 68.791 151.864,82.498 126.497,89.776 118.854 C 95.189 113.170,104.000 108.662,104.000 111.576 C 104.000 112.003,103.821 112.463,103.602 112.599 C 100.498 114.517,85.013 142.392,80.048 155.000 C 75.438 166.703,72.298 179.637,70.724 193.400 C 70.102 198.838,70.074 216.190,70.685 217.600 L 71.118 218.600 71.558 217.476 C 71.800 216.858,72.168 216.456,72.375 216.584 C 72.582 216.712,72.930 216.498,73.149 216.108 C 73.618 215.272,73.854 215.716,74.152 218.000 C 74.252 218.770,74.276 217.780,74.204 215.800 C 73.831 205.479,76.061 185.696,78.803 175.000 C 83.061 158.390,93.937 135.221,104.996 119.200 C 111.905 109.191,111.466 107.609,101.600 106.959 C 99.519 106.822,98.559 106.973,96.790 107.713 M196.294 123.152 C 195.237 123.691,194.309 123.846,193.016 123.701 C 188.333 123.173,184.840 127.751,186.814 131.829 L 187.733 133.727 186.566 134.698 C 185.925 135.232,184.230 136.802,182.800 138.188 C 180.663 140.258,179.772 140.829,177.800 141.389 C 174.230 142.403,169.534 144.821,164.176 148.403 C 159.796 151.333,159.357 151.540,158.883 150.899 C 157.874 149.536,157.899 148.551,158.970 147.394 C 162.192 143.918,159.728 137.056,155.320 137.228 C 154.681 137.253,154.691 137.295,155.400 137.600 C 155.840 137.789,155.996 137.956,155.747 137.972 C 155.497 137.987,155.204 138.341,155.095 138.758 C 154.740 140.118,152.202 141.024,150.985 140.227 C 149.989 139.575,149.964 139.584,149.554 140.761 C 149.270 141.574,148.596 142.221,147.459 142.771 C 144.305 144.298,143.296 148.662,145.385 151.740 L 146.370 153.191 144.270 154.184 C 137.381 157.443,133.206 165.511,133.201 175.575 L 133.200 178.150 132.070 177.067 C 130.839 175.888,128.890 175.182,127.003 175.232 C 126.341 175.249,126.018 175.352,126.284 175.460 C 126.964 175.736,126.455 178.037,125.535 178.847 C 125.131 179.203,124.800 179.702,124.800 179.957 C 124.800 180.495,122.899 181.308,122.384 180.990 C 122.192 180.872,122.057 181.545,122.082 182.487 C 122.108 183.429,121.792 185.042,121.378 186.071 C 119.111 191.718,127.176 196.444,131.052 191.741 C 132.523 189.956,134.985 191.052,134.656 193.346 C 133.806 199.266,133.478 206.665,133.927 209.772 L 134.401 213.050 132.178 217.425 L 129.955 221.800 128.203 221.849 C 126.182 221.905,124.154 222.959,123.297 224.400 L 122.702 225.400 123.531 224.400 C 124.351 223.411,124.366 223.409,124.954 224.200 C 126.334 226.057,124.313 231.010,122.892 229.255 C 122.545 228.827,122.573 229.038,122.973 229.865 C 123.309 230.560,124.038 231.486,124.592 231.922 C 125.214 232.412,125.600 233.119,125.600 233.770 C 125.600 236.758,127.813 238.985,131.236 239.441 C 132.781 239.647,133.414 240.033,135.236 241.876 C 139.367 246.057,144.363 248.851,151.250 250.833 C 154.986 251.909,162.400 256.660,162.400 257.979 C 162.400 259.331,160.369 260.111,158.457 259.494 C 156.295 258.796,154.332 259.029,152.554 260.194 C 151.524 260.868,149.727 264.260,150.167 264.700 C 150.295 264.828,150.400 264.711,150.400 264.439 C 150.400 263.759,152.047 264.055,152.413 264.800 C 153.432 266.876,153.578 267.495,153.292 268.529 L 152.981 269.657 151.790 268.739 C 150.999 268.129,150.791 268.061,151.171 268.537 C 151.894 269.444,153.407 270.220,155.200 270.603 C 155.970 270.767,157.180 271.409,157.889 272.029 C 162.963 276.465,169.623 271.917,167.348 265.569 C 166.087 262.051,167.558 260.962,171.132 262.766 C 179.205 266.841,184.586 268.271,194.000 268.843 C 202.632 269.368,202.021 269.182,201.527 271.129 C 201.160 272.573,200.986 272.732,199.510 272.968 C 196.165 273.503,193.680 277.643,194.876 280.687 C 195.238 281.607,195.692 282.148,196.035 282.067 C 196.346 281.993,196.465 282.069,196.299 282.234 C 194.993 283.540,199.617 285.088,202.072 284.166 C 203.022 283.809,205.119 283.491,206.731 283.459 C 213.164 283.330,215.434 275.553,209.901 272.600 C 207.652 271.400,207.596 268.400,209.823 268.400 C 216.044 268.400,226.707 264.286,235.186 258.614 C 239.463 255.752,239.807 255.595,240.303 256.273 C 241.179 257.470,241.354 258.794,240.707 259.320 C 237.716 261.752,238.270 267.278,241.682 269.042 C 244.648 270.576,247.765 269.598,249.463 266.602 C 249.937 265.764,250.857 264.856,251.507 264.582 C 255.163 263.045,256.157 258.342,253.532 255.004 C 253.079 254.429,252.774 253.920,252.854 253.873 C 252.934 253.827,254.029 253.301,255.287 252.705 C 261.668 249.681,265.395 242.952,265.874 233.591 L 266.109 228.981 267.269 230.064 C 271.590 234.101,277.858 230.917,277.075 225.082 C 276.920 223.925,277.079 223.021,277.628 221.944 C 280.682 215.958,272.411 210.505,267.877 215.515 C 267.249 216.209,266.974 216.256,265.737 215.876 L 264.318 215.441 264.593 213.420 C 265.615 205.903,265.847 199.414,265.214 196.071 C 264.837 194.088,264.880 193.931,266.814 190.213 C 267.906 188.112,268.800 186.124,268.800 185.796 C 268.800 185.341,269.315 185.200,270.986 185.200 C 276.157 185.200,278.515 179.544,274.977 175.628 C 274.220 174.789,273.600 173.714,273.600 173.239 C 273.600 170.519,271.346 168.251,268.169 167.775 C 266.918 167.587,265.985 167.033,264.356 165.511 C 259.419 160.898,254.478 158.127,247.901 156.281 C 245.976 155.741,244.065 155.051,243.654 154.749 C 236.480 149.480,236.377 149.355,237.931 147.866 C 239.031 146.812,239.101 146.799,240.518 147.391 C 244.453 149.036,248.260 147.047,249.036 142.941 C 249.585 140.035,246.528 136.400,243.535 136.400 C 243.042 136.400,242.067 135.846,241.368 135.169 C 236.707 130.652,229.683 135.225,231.785 141.409 C 232.502 143.519,232.225 144.875,230.978 145.353 C 229.449 145.940,223.840 142.173,222.183 139.447 C 217.847 132.314,211.906 128.000,206.419 128.000 C 204.998 128.000,204.868 127.894,204.223 126.205 C 203.617 124.619,201.869 122.800,200.949 122.800 C 200.769 122.800,201.022 123.080,201.511 123.423 C 202.640 124.213,202.625 124.493,201.425 125.049 C 200.595 125.434,200.340 125.366,199.652 124.574 C 199.102 123.941,198.999 123.589,199.325 123.457 C 199.586 123.350,199.485 123.249,199.100 123.232 C 198.715 123.214,198.400 123.391,198.400 123.624 C 198.400 123.857,198.220 123.936,198.000 123.800 C 197.189 123.299,197.640 122.844,199.100 122.691 L 200.600 122.534 199.185 122.467 C 198.406 122.430,197.105 122.738,196.294 123.152 M200.000 127.200 C 201.747 128.947,199.455 131.207,197.174 129.986 C 196.131 129.428,196.200 128.564,197.382 127.382 C 198.572 126.192,198.964 126.164,200.000 127.200 M193.182 128.178 C 194.149 129.344,193.537 130.600,192.000 130.600 C 190.843 130.600,190.577 130.440,190.469 129.678 C 190.313 128.574,191.030 127.600,192.000 127.600 C 192.386 127.600,192.918 127.860,193.182 128.178 M209.814 136.195 C 215.019 139.220,218.937 146.466,220.188 155.381 C 220.977 161.004,220.516 161.881,215.390 164.508 C 214.724 164.849,212.703 166.404,210.898 167.964 C 207.278 171.092,207.052 171.156,203.132 170.151 C 200.068 169.365,196.447 169.590,193.037 170.777 C 189.588 171.979,189.096 171.878,186.436 169.433 C 185.140 168.242,182.799 166.336,181.235 165.198 C 177.564 162.528,177.431 162.255,178.189 158.984 C 181.782 143.493,199.903 130.434,209.814 136.195 M238.201 138.002 C 238.972 138.853,238.541 140.800,237.582 140.800 C 235.940 140.800,234.971 138.789,236.080 137.680 C 236.767 136.993,237.372 137.085,238.201 138.002 M244.320 140.880 C 245.422 141.982,244.601 144.000,243.051 144.000 C 242.197 144.000,240.800 142.926,240.800 142.270 C 240.800 140.856,243.307 139.867,244.320 140.880 M156.200 143.230 C 156.200 145.061,154.302 146.267,153.377 145.024 C 152.583 143.955,152.654 142.946,153.591 142.009 C 154.792 140.808,156.200 141.467,156.200 143.230 M151.120 146.880 C 151.853 147.613,151.693 148.722,150.785 149.208 C 149.149 150.084,147.579 148.734,148.416 147.171 C 148.877 146.308,150.386 146.146,151.120 146.880 M173.600 151.300 C 173.596 152.390,171.930 155.374,171.382 155.271 C 168.331 154.694,168.233 154.131,170.899 152.491 C 172.754 151.350,173.601 150.977,173.600 151.300 M230.115 153.505 C 231.879 154.698,231.701 155.031,229.100 155.413 C 227.292 155.677,227.200 155.645,227.195 154.745 C 227.192 154.225,227.075 153.375,226.936 152.854 C 226.620 151.676,227.754 151.908,230.115 153.505 M160.000 159.212 C 167.572 160.396,183.457 169.066,183.922 172.269 C 184.048 173.140,183.864 173.315,179.841 176.157 C 172.400 181.412,169.618 193.640,173.317 204.831 C 175.308 210.854,174.975 211.116,167.662 209.280 C 151.222 205.153,140.000 191.614,140.000 175.906 C 140.000 163.293,147.272 157.223,160.000 159.212 M245.384 162.586 C 255.867 165.245,263.055 171.959,262.958 179.000 C 262.855 186.574,255.682 195.943,246.432 200.588 C 244.800 201.408,242.820 202.498,242.032 203.011 C 238.687 205.188,227.151 208.430,225.634 207.618 C 224.603 207.066,224.602 207.091,225.700 203.304 C 229.230 191.125,223.957 177.097,214.668 173.956 C 211.446 172.866,211.381 172.314,214.178 169.753 C 221.858 162.721,234.485 159.821,245.384 162.586 M269.000 173.356 C 269.000 174.796,267.946 175.585,267.034 174.828 C 266.383 174.288,266.177 172.757,266.685 172.248 C 267.462 171.472,269.000 172.208,269.000 173.356 M203.910 173.201 C 211.255 175.772,211.934 180.513,206.248 189.525 C 201.946 196.342,201.633 200.466,205.165 203.789 C 207.153 205.659,207.821 208.511,206.913 211.249 C 205.974 214.081,205.232 214.171,202.202 211.818 C 200.914 210.818,199.563 210.000,199.200 210.000 C 198.837 210.000,197.486 210.818,196.198 211.818 C 193.168 214.171,192.426 214.081,191.487 211.249 C 190.579 208.511,191.247 205.659,193.235 203.789 C 196.767 200.466,196.454 196.342,192.152 189.525 C 187.416 182.019,187.158 177.726,191.259 174.689 C 194.281 172.451,199.883 171.792,203.910 173.201 M185.123 178.866 C 185.208 179.595,184.809 180.506,183.862 181.746 C 181.706 184.570,180.400 189.927,180.400 195.945 C 180.400 201.968,183.607 208.616,188.748 213.250 C 191.188 215.450,191.246 215.904,189.353 217.999 C 186.839 220.782,185.984 220.394,181.432 214.400 C 172.253 202.314,172.171 186.375,181.251 179.197 C 183.634 177.314,184.931 177.203,185.123 178.866 M217.174 179.217 C 226.228 186.374,226.135 202.330,216.968 214.400 C 212.416 220.394,211.561 220.782,209.047 217.999 C 207.154 215.904,207.212 215.450,209.652 213.250 C 213.527 209.757,216.100 205.551,217.381 200.616 C 218.931 194.646,217.170 183.990,214.168 181.170 C 213.615 180.650,213.200 179.805,213.200 179.197 C 213.200 177.045,214.435 177.052,217.174 179.217 M272.219 178.573 C 273.163 180.014,272.393 181.290,270.681 181.123 C 269.323 180.991,268.433 179.532,268.927 178.247 C 269.326 177.206,271.462 177.418,272.219 178.573 M128.826 179.614 C 129.678 180.070,129.848 181.589,129.186 182.826 C 128.655 183.819,127.810 183.810,126.800 182.800 C 125.001 181.001,126.631 178.439,128.826 179.614 M186.242 185.506 C 186.485 185.668,187.461 187.060,188.410 188.600 C 193.916 197.538,194.195 198.977,191.158 202.800 C 190.547 203.570,189.716 205.100,189.313 206.200 C 187.859 210.164,185.378 208.233,183.438 201.627 C 181.658 195.568,183.702 183.818,186.242 185.506 M213.761 186.100 C 216.440 190.258,216.086 202.040,213.172 205.745 C 211.627 207.709,210.458 207.178,207.459 203.150 C 204.198 198.770,204.384 197.699,209.990 188.600 C 212.278 184.886,212.770 184.561,213.761 186.100 M128.010 186.612 C 128.398 187.080,128.412 187.456,128.067 188.212 C 127.504 189.448,125.820 189.559,125.200 188.400 C 124.256 186.637,126.726 185.065,128.010 186.612 M291.110 189.424 C 289.320 190.395,289.200 191.052,289.200 199.874 C 289.199 208.701,288.744 215.207,287.806 219.800 C 284.186 237.512,279.777 247.028,270.789 256.525 C 265.702 261.900,265.604 263.979,270.325 266.362 C 279.277 270.881,287.190 266.343,294.403 252.556 C 299.044 243.685,302.531 240.357,305.860 241.623 C 311.349 243.710,311.970 240.401,307.712 231.755 L 305.000 226.250 304.745 217.025 C 304.604 211.951,304.283 206.990,304.032 206.000 C 300.827 193.388,295.767 186.896,291.110 189.424 M104.400 194.555 C 95.388 196.553,91.847 205.329,94.145 219.970 C 95.663 229.640,94.223 235.600,90.369 235.600 C 89.299 235.600,88.000 237.008,88.000 238.169 C 88.000 239.842,89.762 241.317,94.911 243.954 C 101.090 247.117,102.639 248.507,107.003 254.800 C 115.694 267.331,128.920 274.798,133.403 269.704 C 135.039 267.845,134.629 266.244,131.438 262.042 C 130.537 260.855,129.112 258.965,128.272 257.842 C 114.564 239.529,107.653 216.035,111.241 199.955 C 112.317 195.134,110.008 193.311,104.400 194.555 M143.985 203.400 C 143.999 203.785,141.475 206.000,141.021 206.000 C 140.723 206.000,140.748 203.366,141.064 201.452 L 141.320 199.905 142.645 201.452 C 143.374 202.304,143.977 203.180,143.985 203.400 M258.394 203.700 C 258.385 207.260,257.991 207.637,256.457 205.552 C 254.928 203.472,254.930 203.582,256.400 202.600 C 257.059 202.160,257.598 201.665,257.599 201.500 C 257.599 201.335,257.780 201.200,258.000 201.200 C 258.225 201.200,258.397 202.296,258.394 203.700 M249.297 207.700 C 260.119 218.353,262.629 238.126,254.059 245.216 C 249.689 248.833,240.116 249.003,231.279 245.621 C 229.586 244.973,227.144 244.152,225.854 243.797 C 223.777 243.225,223.076 242.728,219.755 239.475 C 215.342 235.153,215.291 234.919,218.300 232.842 C 222.884 229.678,224.904 227.196,227.192 221.918 C 228.927 217.917,228.624 217.346,225.011 217.823 C 220.713 218.390,217.832 218.285,217.689 217.557 C 217.467 216.419,221.468 212.053,222.923 211.846 C 231.144 210.678,239.078 208.549,243.077 206.439 C 245.676 205.068,246.869 205.309,249.297 207.700 M154.806 207.812 C 160.518 211.036,167.945 213.370,174.000 213.844 C 177.743 214.137,179.261 214.711,180.240 216.205 C 181.742 218.498,180.721 218.717,172.984 217.763 C 169.762 217.366,169.527 218.023,171.396 222.217 C 174.010 228.083,177.130 231.474,182.216 233.978 C 186.851 236.260,185.652 238.609,178.308 241.638 C 176.749 242.281,175.277 242.968,175.037 243.164 C 172.188 245.498,159.155 246.262,153.000 244.457 C 132.906 238.562,130.792 222.548,148.360 209.300 C 152.112 206.470,152.336 206.418,154.806 207.812 M205.339 217.448 C 210.747 222.772,210.905 222.891,212.336 222.681 C 213.141 222.563,215.634 222.183,217.876 221.837 C 223.625 220.948,224.389 221.568,222.063 225.237 C 214.344 237.408,184.056 237.408,176.337 225.237 C 174.011 221.568,174.775 220.948,180.524 221.837 C 182.766 222.183,185.266 222.564,186.080 222.683 C 187.533 222.896,187.664 222.798,193.074 217.450 C 196.106 214.453,198.861 212.000,199.196 212.000 C 199.531 212.000,202.295 214.452,205.339 217.448 M273.520 218.080 C 274.747 219.307,273.067 221.585,271.538 220.767 C 270.177 220.039,270.841 217.600,272.400 217.600 C 272.752 217.600,273.256 217.816,273.520 218.080 M272.400 224.400 C 273.776 225.776,273.205 227.600,271.400 227.600 C 270.268 227.600,269.600 226.858,269.600 225.600 C 269.600 223.641,271.029 223.029,272.400 224.400 M129.986 226.774 C 130.640 227.996,130.475 229.122,129.600 229.400 C 127.742 229.990,125.972 228.347,126.800 226.800 C 127.372 225.731,129.419 225.714,129.986 226.774 M132.173 232.370 C 133.444 233.775,132.049 235.931,130.500 234.955 C 129.273 234.182,129.811 231.600,131.200 231.600 C 131.352 231.600,131.790 231.947,132.173 232.370 M210.647 240.343 C 211.085 240.752,213.167 242.364,215.273 243.926 C 217.379 245.488,219.201 247.027,219.323 247.345 C 219.536 247.899,221.585 248.960,227.200 251.425 C 228.630 252.052,229.952 252.689,230.137 252.840 C 231.368 253.841,221.737 258.512,215.425 259.974 C 205.754 262.215,194.420 262.622,186.699 261.007 C 182.223 260.070,170.769 255.058,168.000 252.824 L 167.000 252.018 168.010 252.009 C 171.059 251.982,178.995 249.536,181.959 247.709 C 185.177 245.727,190.172 242.171,191.240 241.103 C 191.768 240.574,192.959 240.465,198.238 240.458 C 201.737 240.454,205.500 240.280,206.600 240.072 C 209.545 239.515,209.775 239.531,210.647 240.343 M315.429 255.829 C 314.736 256.521,314.622 256.854,315.130 256.700 C 315.311 256.645,316.234 257.404,317.181 258.386 L 318.902 260.172 318.685 263.386 C 317.827 276.089,303.111 299.662,290.000 309.334 C 288.790 310.227,286.180 312.415,284.200 314.197 C 279.274 318.631,276.811 320.222,267.463 325.009 C 244.982 336.522,232.586 339.656,224.049 335.983 C 221.020 334.680,221.370 334.082,225.800 332.990 C 235.476 330.604,258.747 319.266,271.600 310.675 C 287.310 300.174,305.075 281.506,312.124 268.092 C 313.592 265.298,313.704 263.962,312.265 266.397 C 311.876 267.056,311.203 267.785,310.768 268.017 C 310.333 268.250,310.068 268.587,310.179 268.767 C 310.728 269.654,308.849 270.524,307.828 269.855 C 306.848 269.213,306.818 269.229,305.554 271.067 C 289.708 294.098,256.866 317.426,225.927 327.626 C 216.697 330.668,215.511 332.358,219.402 336.915 C 227.189 346.037,242.439 343.768,270.400 329.327 C 298.684 314.720,322.665 285.033,323.303 263.837 C 323.478 258.034,318.394 252.863,315.429 255.829 M250.557 258.233 C 250.984 259.344,250.821 259.960,249.985 260.408 C 248.349 261.284,246.779 259.934,247.616 258.371 C 248.127 257.415,250.206 257.317,250.557 258.233 M80.892 260.668 C 80.612 260.780,80.046 261.531,79.633 262.336 C 79.220 263.141,78.413 264.686,77.841 265.768 C 73.382 274.198,81.434 289.355,100.600 308.608 C 115.600 323.677,134.097 334.174,154.400 339.139 C 167.163 342.261,181.835 341.319,185.400 337.149 C 185.840 336.635,185.929 336.421,185.599 336.674 C 184.529 337.493,183.498 336.380,184.108 335.065 C 184.819 333.534,186.659 333.978,186.110 335.549 C 185.930 336.063,185.990 336.100,186.398 335.724 C 187.381 334.814,187.388 331.511,186.410 330.396 L 185.536 329.400 186.168 330.389 C 186.781 331.348,187.091 334.824,186.512 334.245 C 186.354 334.087,186.219 333.578,186.212 333.114 C 186.205 332.650,185.975 332.194,185.700 332.102 C 185.408 332.003,185.200 332.274,185.200 332.754 C 185.200 333.328,185.015 333.504,184.585 333.339 C 184.247 333.209,183.662 333.377,183.285 333.712 C 175.932 340.244,141.204 332.943,126.206 321.711 C 124.889 320.725,122.940 319.477,121.875 318.937 C 112.762 314.319,94.466 296.328,86.357 284.010 C 80.389 274.944,78.959 260.406,84.880 269.000 C 92.333 279.815,112.364 299.772,124.600 308.573 C 131.778 313.736,147.099 322.086,154.447 324.840 C 166.162 329.230,174.000 331.316,174.000 330.043 C 174.000 329.847,173.550 329.574,173.000 329.436 C 172.282 329.256,172.000 328.915,172.000 328.228 C 172.000 327.228,170.801 326.996,170.488 327.935 C 170.220 328.740,169.700 328.440,169.700 327.481 C 169.700 326.870,169.951 326.544,170.450 326.506 C 170.863 326.475,171.200 326.602,171.200 326.787 C 171.200 326.973,171.571 327.028,172.024 326.910 C 172.592 326.761,171.631 326.294,168.924 325.402 C 151.833 319.771,134.974 310.604,121.200 299.452 C 111.999 292.002,97.028 276.547,89.966 267.207 C 85.095 260.765,83.503 259.617,80.892 260.668 M246.144 262.479 C 246.782 263.497,246.000 265.369,244.870 265.531 C 242.988 265.800,242.126 263.808,243.478 262.314 C 244.272 261.436,245.539 261.515,246.144 262.479 M157.920 263.680 C 159.292 265.052,157.237 267.310,155.384 266.465 C 153.557 265.633,154.314 263.200,156.400 263.200 C 156.972 263.200,157.656 263.416,157.920 263.680 M162.971 266.629 C 163.903 267.560,163.741 268.753,162.612 269.267 C 161.343 269.846,160.400 269.143,160.400 267.618 C 160.400 265.883,161.719 265.376,162.971 266.629 M207.982 276.578 C 208.746 277.499,208.338 278.981,207.278 279.131 C 206.091 279.299,205.200 278.550,205.200 277.384 C 205.200 276.030,207.076 275.486,207.982 276.578 M202.414 277.627 C 203.125 278.955,201.914 280.482,200.275 280.324 C 199.195 280.219,198.979 280.020,198.866 279.020 C 198.635 276.990,201.476 275.874,202.414 277.627 M198.800 283.664 C 198.800 284.106,198.511 284.088,197.574 283.586 C 196.424 282.971,196.625 282.337,197.800 282.873 C 198.350 283.123,198.800 283.480,198.800 283.664 M231.400 287.431 C 208.209 295.460,186.532 295.325,170.099 287.050 C 164.313 284.136,161.600 285.772,161.600 292.173 C 161.600 301.014,167.704 306.168,181.055 308.600 C 193.396 310.848,196.400 312.562,196.400 317.357 C 196.400 319.392,197.352 320.400,199.275 320.400 C 200.501 320.400,201.815 319.377,206.524 314.753 C 210.416 310.932,212.895 309.600,220.326 307.335 C 234.146 303.125,245.180 292.962,242.196 287.192 C 240.846 284.582,239.543 284.611,231.400 287.431 M221.788 337.300 C 221.745 337.795,221.904 338.470,222.142 338.800 C 222.381 339.130,222.098 338.975,221.514 338.455 C 220.674 337.707,220.551 337.398,220.926 336.970 C 221.617 336.183,221.877 336.282,221.788 337.300 " stroke="none" fill="#040404" fill-rule="evenodd"></path><path id="path2" d="M194.800 64.394 C 193.810 64.585,191.583 64.754,189.851 64.770 C 177.338 64.888,155.367 71.838,145.826 78.697 C 139.495 83.248,135.626 87.868,136.702 89.592 C 136.976 90.030,137.200 90.741,137.200 91.171 C 137.200 91.601,137.380 92.064,137.600 92.200 C 138.103 92.511,138.109 91.775,137.618 90.061 C 136.833 87.327,139.110 84.408,146.000 79.311 C 154.427 73.078,176.896 65.600,187.198 65.600 C 188.734 65.600,192.558 65.304,195.696 64.941 C 207.720 63.553,236.352 68.539,246.947 73.867 C 252.066 76.440,258.136 81.997,257.034 83.100 C 256.910 83.223,254.242 82.589,251.104 81.689 C 216.334 71.717,181.654 71.704,153.600 81.654 C 143.705 85.163,135.939 89.891,144.172 87.393 C 146.049 86.824,146.185 86.835,147.021 87.620 C 147.769 88.322,147.981 88.362,148.453 87.890 C 148.758 87.585,149.231 87.410,149.504 87.501 C 149.777 87.592,150.000 87.477,150.000 87.246 C 150.000 87.014,150.252 86.922,150.560 87.040 C 150.867 87.158,151.237 87.064,151.380 86.832 C 151.545 86.566,151.387 86.507,150.955 86.673 C 150.556 86.826,150.369 86.774,150.508 86.549 C 150.827 86.033,150.129 84.938,149.733 85.333 C 149.563 85.504,149.623 85.769,149.867 85.922 C 150.191 86.125,150.188 86.310,149.856 86.608 C 149.214 87.182,148.647 87.104,147.878 86.336 C 147.476 85.933,146.856 85.754,146.307 85.881 C 144.760 86.239,146.605 85.058,149.401 83.900 C 167.145 76.551,192.753 73.076,213.200 75.241 C 227.984 76.806,244.455 80.015,253.767 83.144 C 255.626 83.769,257.363 84.146,257.628 83.983 C 259.750 82.671,252.011 75.239,245.787 72.614 C 233.450 67.411,203.890 62.645,194.800 64.394 M288.306 109.614 C 287.068 110.929,286.945 111.200,287.583 111.200 C 288.006 111.200,288.454 111.037,288.577 110.838 C 288.700 110.638,289.139 110.563,289.551 110.671 C 290.183 110.837,290.269 110.694,290.093 109.773 C 289.627 107.339,295.439 109.756,301.614 114.564 C 311.260 122.075,323.752 139.343,327.561 150.429 C 328.198 152.283,329.462 155.388,330.370 157.330 C 335.186 167.626,339.392 197.174,337.621 208.262 C 336.640 214.401,333.764 220.800,331.986 220.800 C 331.841 220.800,331.601 217.965,331.453 214.500 C 330.700 196.911,326.929 174.934,322.444 162.000 C 319.694 154.072,311.471 136.399,309.414 134.000 C 309.131 133.670,307.960 131.870,306.811 130.000 C 302.187 122.477,292.000 110.448,292.000 112.512 C 292.000 113.177,293.270 115.540,293.967 116.170 C 294.964 117.073,295.021 117.719,294.164 118.430 C 293.586 118.910,293.592 119.005,294.240 119.479 C 294.632 119.766,294.816 120.000,294.649 120.000 C 294.482 120.000,294.737 120.550,295.216 121.223 C 296.047 122.389,296.122 122.414,296.843 121.761 C 297.868 120.833,297.797 120.000,296.693 120.000 C 295.909 120.000,295.781 119.784,295.745 118.400 C 295.691 116.362,295.887 116.390,297.815 118.692 C 309.300 132.405,319.594 152.519,324.381 170.600 C 327.926 183.990,330.800 204.440,330.800 216.269 C 330.800 222.245,331.127 222.953,333.060 221.151 C 336.615 217.837,339.065 208.368,338.636 199.600 C 337.796 182.450,334.473 164.091,330.940 157.085 C 330.140 155.498,328.978 152.702,328.358 150.871 C 323.182 135.582,307.286 115.869,295.092 109.617 C 291.110 107.576,290.226 107.575,288.306 109.614 M99.233 111.816 C 91.822 115.266,86.105 121.887,77.992 136.418 C 71.577 147.907,67.810 156.281,66.593 161.760 C 65.684 165.852,64.511 170.665,63.811 173.178 C 61.521 181.403,60.986 200.039,62.767 209.600 C 64.528 219.055,68.494 228.004,70.920 227.998 C 72.996 227.993,74.801 227.187,74.768 226.281 C 74.751 225.797,74.652 225.607,74.548 225.860 C 74.429 226.153,73.967 226.216,73.280 226.033 C 71.459 225.549,71.583 219.600,73.414 219.600 C 73.841 219.600,74.000 219.117,74.000 217.824 C 74.000 216.001,73.471 215.117,73.045 216.228 C 72.913 216.570,72.624 216.738,72.402 216.601 C 72.180 216.464,71.800 216.858,71.558 217.476 L 71.118 218.600 70.685 217.600 C 70.074 216.190,70.102 198.838,70.724 193.400 C 72.298 179.637,75.438 166.703,80.048 155.000 C 85.013 142.392,100.498 114.517,103.602 112.599 C 103.821 112.463,104.000 112.003,104.000 111.576 C 104.000 110.456,101.931 110.560,99.233 111.816 M102.800 112.003 C 102.800 112.225,101.663 113.980,100.274 115.903 C 89.979 130.156,77.782 156.155,73.957 172.000 C 71.221 183.332,70.343 189.568,69.449 204.000 C 69.229 207.561,69.920 217.954,70.593 221.200 C 71.687 226.481,71.709 226.685,71.214 226.991 C 69.358 228.139,64.926 218.368,63.417 209.800 C 61.431 198.521,62.267 177.617,64.964 171.144 C 65.272 170.405,66.002 167.476,66.586 164.636 C 69.139 152.226,83.024 125.991,91.072 118.371 C 96.047 113.660,102.800 109.994,102.800 112.003 M197.817 123.172 C 197.691 123.377,197.770 123.658,197.993 123.796 C 198.217 123.934,198.400 123.857,198.400 123.624 C 198.400 123.391,198.715 123.214,199.100 123.232 C 199.485 123.249,199.586 123.350,199.325 123.457 C 198.999 123.589,199.102 123.941,199.652 124.574 C 200.438 125.477,202.387 125.268,202.397 124.280 C 202.405 123.410,198.286 122.414,197.817 123.172 M197.382 127.382 C 195.862 128.901,196.454 130.400,198.574 130.400 C 199.269 130.400,200.800 129.025,200.800 128.400 C 200.800 126.729,198.670 126.094,197.382 127.382 M199.600 127.800 C 200.259 128.594,199.409 129.689,198.266 129.519 C 197.205 129.362,197.010 128.647,197.811 127.846 C 198.613 127.045,198.965 127.035,199.600 127.800 M190.818 128.178 C 189.851 129.344,190.463 130.600,192.000 130.600 C 193.157 130.600,193.423 130.440,193.531 129.678 C 193.687 128.574,192.970 127.600,192.000 127.600 C 191.614 127.600,191.082 127.860,190.818 128.178 M192.720 128.480 C 193.564 129.324,193.296 130.400,192.243 130.400 C 191.139 130.400,190.574 129.354,191.242 128.549 C 191.802 127.875,192.101 127.861,192.720 128.480 M200.110 135.383 C 190.822 137.480,180.632 148.451,178.189 158.984 C 177.431 162.255,177.564 162.528,181.235 165.198 C 182.799 166.336,185.140 168.242,186.436 169.433 C 189.096 171.878,189.588 171.979,193.037 170.777 C 196.447 169.590,200.068 169.365,203.132 170.151 C 207.052 171.156,207.278 171.092,210.898 167.964 C 212.703 166.404,214.724 164.849,215.390 164.508 C 220.516 161.881,220.977 161.004,220.188 155.381 C 218.124 140.675,210.464 133.046,200.110 135.383 M208.513 136.147 C 214.464 138.677,219.579 148.701,219.749 158.163 L 219.800 161.000 217.265 162.600 C 215.112 163.958,212.318 166.068,207.783 169.760 C 206.889 170.487,206.750 170.491,204.498 169.860 C 200.966 168.869,196.395 169.007,193.000 170.207 C 189.347 171.498,189.562 171.539,186.830 169.028 C 185.531 167.833,183.102 165.846,181.434 164.612 C 178.022 162.089,177.915 161.792,179.040 157.973 C 183.185 143.901,199.074 132.134,208.513 136.147 M236.080 137.680 C 235.345 138.415,235.509 139.923,236.374 140.386 C 237.547 141.014,237.974 140.895,238.472 139.802 C 239.214 138.173,237.292 136.468,236.080 137.680 M153.834 138.600 C 154.032 139.693,153.600 139.857,152.436 139.130 C 151.832 138.752,151.555 138.788,151.032 139.311 C 150.431 139.912,150.445 139.996,151.222 140.412 C 152.225 140.949,154.691 139.967,155.095 138.870 C 155.231 138.501,155.535 138.068,155.771 137.906 C 156.007 137.744,155.627 137.609,154.926 137.606 C 153.785 137.601,153.672 137.704,153.834 138.600 M238.145 138.600 C 238.451 139.398,238.040 140.400,237.406 140.400 C 236.652 140.400,235.877 139.299,236.143 138.605 C 236.442 137.824,237.846 137.820,238.145 138.600 M241.462 141.131 C 240.614 142.069,240.628 142.520,241.531 143.338 C 242.915 144.590,244.800 143.933,244.800 142.200 C 244.800 140.432,242.702 139.761,241.462 141.131 M153.591 142.009 C 152.654 142.946,152.583 143.955,153.377 145.024 C 154.302 146.267,156.200 145.061,156.200 143.230 C 156.200 141.467,154.792 140.808,153.591 142.009 M244.140 141.788 C 244.502 142.730,243.298 143.681,242.372 143.185 C 241.600 142.772,241.364 141.969,241.867 141.467 C 242.359 140.974,243.912 141.194,244.140 141.788 M155.765 142.916 C 156.295 143.757,155.179 145.031,154.231 144.667 C 153.482 144.380,153.401 143.159,154.085 142.475 C 154.673 141.887,155.203 142.026,155.765 142.916 M148.416 147.171 C 147.579 148.734,149.149 150.084,150.785 149.208 C 151.693 148.722,151.853 147.613,151.120 146.880 C 150.386 146.146,148.877 146.308,148.416 147.171 M151.000 147.800 C 151.000 148.375,150.691 148.636,149.900 148.727 C 148.817 148.851,148.314 147.819,149.084 147.050 C 149.661 146.472,151.000 146.996,151.000 147.800 M151.886 159.236 C 142.188 160.655,137.728 170.542,140.989 183.396 C 144.339 196.602,153.824 205.806,167.662 209.280 C 174.975 211.116,175.308 210.854,173.317 204.831 C 169.618 193.640,172.400 181.412,179.841 176.157 C 183.864 173.315,184.048 173.140,183.922 172.269 C 183.626 170.234,173.090 163.422,166.600 161.069 C 160.688 158.926,157.079 158.476,151.886 159.236 M166.002 161.458 C 172.817 163.995,183.200 170.585,183.200 172.375 C 183.200 172.877,182.233 173.781,180.379 175.014 C 172.048 180.552,168.744 193.554,172.724 205.133 C 174.478 210.237,174.155 210.439,167.200 208.585 C 151.421 204.378,140.847 191.476,140.661 176.200 C 140.486 161.812,150.811 155.804,166.002 161.458 M228.600 162.378 C 223.183 163.721,217.708 166.521,214.178 169.753 C 211.381 172.314,211.446 172.866,214.668 173.956 C 223.957 177.097,229.230 191.125,225.700 203.304 C 224.602 207.091,224.603 207.066,225.634 207.618 C 227.151 208.430,238.687 205.188,242.032 203.011 C 242.820 202.498,244.800 201.408,246.432 200.588 C 255.682 195.943,262.855 186.574,262.958 179.000 C 263.115 167.582,244.305 158.483,228.600 162.378 M246.185 163.400 C 255.675 166.168,262.400 172.466,262.400 178.584 C 262.400 185.943,255.120 195.680,246.400 199.983 C 245.190 200.580,243.030 201.712,241.600 202.498 C 238.669 204.108,230.822 206.740,227.928 207.083 C 225.440 207.378,225.266 206.912,226.357 202.871 C 229.609 190.816,225.047 178.235,215.812 173.793 C 212.227 172.069,212.246 172.153,214.900 169.801 C 222.472 163.090,235.785 160.366,246.185 163.400 M266.685 172.248 C 265.626 173.307,267.102 175.710,268.334 174.933 C 269.449 174.230,269.204 172.224,267.985 172.082 C 267.427 172.017,266.842 172.092,266.685 172.248 M194.459 173.165 C 187.182 175.679,186.494 180.557,192.152 189.525 C 196.454 196.342,196.767 200.466,193.235 203.789 C 191.247 205.659,190.579 208.511,191.487 211.249 C 192.426 214.081,193.168 214.171,196.198 211.818 C 197.486 210.818,198.837 210.000,199.200 210.000 C 199.563 210.000,200.914 210.818,202.202 211.818 C 205.232 214.171,205.974 214.081,206.913 211.249 C 207.821 208.511,207.153 205.659,205.165 203.789 C 201.633 200.466,201.946 196.342,206.248 189.525 C 210.104 183.413,210.971 179.545,209.100 176.796 C 206.508 172.988,199.795 171.323,194.459 173.165 M268.733 173.347 C 268.811 173.753,268.677 174.283,268.435 174.525 C 267.824 175.136,266.604 173.888,266.944 173.001 C 267.273 172.145,268.549 172.392,268.733 173.347 M204.395 174.117 C 210.309 176.304,210.911 180.533,206.374 188.004 C 201.135 196.629,200.713 199.674,204.210 203.611 C 206.712 206.428,207.327 209.450,205.939 212.100 C 205.388 213.151,204.713 212.966,202.411 211.133 C 199.709 208.982,198.691 208.982,195.989 211.133 C 193.687 212.966,193.012 213.151,192.461 212.100 C 191.087 209.477,191.712 206.219,194.028 203.926 C 197.530 200.458,196.953 195.243,192.319 188.487 C 187.849 181.971,188.024 177.096,192.812 174.695 C 196.831 172.679,200.073 172.517,204.395 174.117 M125.643 175.965 C 125.309 176.176,125.176 176.666,125.312 177.184 C 125.454 177.730,125.328 178.129,124.969 178.267 C 124.656 178.387,124.400 178.830,124.400 179.251 C 124.400 179.848,124.181 179.976,123.400 179.834 C 122.616 179.692,122.400 179.820,122.400 180.426 C 122.400 181.322,122.416 181.326,123.774 180.810 C 124.338 180.595,124.800 180.211,124.800 179.957 C 124.800 179.702,125.131 179.203,125.535 178.847 C 126.270 178.200,127.038 175.595,126.490 175.606 C 126.331 175.609,125.949 175.771,125.643 175.965 M181.251 179.197 C 172.171 186.375,172.253 202.314,181.432 214.400 C 185.984 220.394,186.839 220.782,189.353 217.999 C 191.246 215.904,191.188 215.450,188.748 213.250 C 183.607 208.616,180.400 201.968,180.400 195.945 C 180.400 189.927,181.706 184.570,183.862 181.746 C 186.649 178.095,184.858 176.346,181.251 179.197 M213.467 177.867 C 212.863 178.470,213.254 180.311,214.168 181.170 C 217.170 183.990,218.931 194.646,217.381 200.616 C 216.100 205.551,213.527 209.757,209.652 213.250 C 207.212 215.450,207.154 215.904,209.047 217.999 C 211.561 220.782,212.416 220.394,216.968 214.400 C 226.135 202.330,226.228 186.374,217.174 179.217 C 215.241 177.689,214.071 177.263,213.467 177.867 M268.927 178.247 C 268.433 179.532,269.323 180.991,270.681 181.123 C 272.393 181.290,273.163 180.014,272.219 178.573 C 271.462 177.418,269.326 177.206,268.927 178.247 M272.000 179.365 C 272.000 180.161,270.995 180.850,270.251 180.564 C 269.487 180.271,269.373 178.548,270.100 178.287 C 270.798 178.037,272.000 178.719,272.000 179.365 M184.652 178.991 C 184.783 179.333,184.266 180.296,183.423 181.281 C 180.994 184.120,180.209 187.416,180.204 194.800 C 180.199 203.263,182.081 207.824,187.751 213.089 C 190.375 215.525,190.466 216.014,188.640 217.840 C 186.925 219.555,186.600 219.541,184.838 217.686 C 175.605 207.964,172.720 195.139,177.442 184.801 C 179.282 180.773,183.906 177.046,184.652 178.991 M216.640 179.546 C 226.594 186.857,225.086 205.552,213.562 217.686 C 211.800 219.541,211.475 219.555,209.760 217.840 C 207.934 216.014,208.025 215.525,210.649 213.089 C 219.031 205.306,221.256 189.043,215.007 181.244 C 213.552 179.427,213.415 179.118,213.867 178.667 C 214.363 178.170,215.075 178.396,216.640 179.546 M126.629 179.829 C 125.772 180.685,125.839 181.839,126.800 182.800 C 127.810 183.810,128.655 183.819,129.186 182.826 C 130.450 180.464,128.398 178.059,126.629 179.829 M128.950 180.892 C 129.588 181.906,128.323 183.166,127.420 182.417 C 126.775 181.881,126.595 180.738,127.080 180.253 C 127.523 179.810,128.473 180.135,128.950 180.892 M184.639 186.100 C 182.866 188.851,182.204 197.424,183.438 201.627 C 185.378 208.233,187.859 210.164,189.313 206.200 C 189.716 205.100,190.547 203.570,191.158 202.800 C 194.195 198.977,193.916 197.538,188.410 188.600 C 186.122 184.886,185.630 184.561,184.639 186.100 M212.158 185.506 C 211.915 185.668,210.939 187.060,209.990 188.600 C 204.384 197.699,204.198 198.770,207.459 203.150 C 211.284 208.288,212.965 208.048,214.801 202.103 C 216.758 195.765,214.841 183.723,212.158 185.506 M125.200 186.800 C 124.596 187.929,125.349 189.200,126.623 189.200 C 127.899 189.200,128.785 187.546,128.010 186.612 C 127.289 185.744,125.709 185.849,125.200 186.800 M127.857 187.005 C 128.132 187.721,127.339 188.800,126.538 188.800 C 125.857 188.800,125.428 187.826,125.745 187.000 C 126.044 186.220,127.557 186.224,127.857 187.005 M188.751 190.417 C 193.006 197.243,193.382 199.149,191.031 201.963 C 190.277 202.865,189.444 204.277,189.179 205.101 C 186.518 213.360,181.761 198.691,184.053 189.296 C 185.029 185.295,185.652 185.443,188.751 190.417 M213.515 186.900 C 215.638 189.468,215.558 199.741,213.383 204.034 C 212.117 206.532,211.427 206.730,209.862 205.047 C 204.728 199.528,204.711 198.339,209.649 190.417 C 212.120 186.452,212.705 185.920,213.515 186.900 M243.077 206.439 C 239.078 208.549,231.144 210.678,222.923 211.846 C 221.468 212.053,217.467 216.419,217.689 217.557 C 217.832 218.285,220.713 218.390,225.011 217.823 C 228.624 217.346,228.927 217.917,227.192 221.918 C 224.904 227.196,222.884 229.678,218.300 232.842 C 215.291 234.919,215.342 235.153,219.755 239.475 C 223.076 242.728,223.777 243.225,225.854 243.797 C 227.144 244.152,229.586 244.973,231.279 245.621 C 245.169 250.936,255.213 248.084,258.399 237.921 C 262.395 225.175,251.192 202.157,243.077 206.439 M247.697 207.067 C 254.706 211.924,260.314 227.343,258.252 236.084 C 255.181 249.102,246.730 250.755,224.600 242.665 C 223.165 242.140,216.800 235.983,216.800 235.119 C 216.800 234.786,217.770 233.869,218.955 233.082 C 222.729 230.577,225.024 227.923,226.996 223.786 C 230.064 217.352,229.533 216.423,223.355 217.417 C 218.144 218.256,217.628 217.857,220.057 214.870 C 221.821 212.702,223.261 212.007,226.000 212.002 C 229.033 211.996,238.308 209.278,243.600 206.845 C 245.882 205.796,245.861 205.795,247.697 207.067 M148.360 209.300 C 130.792 222.548,132.906 238.562,153.000 244.457 C 159.155 246.262,172.188 245.498,175.037 243.164 C 175.277 242.968,176.749 242.281,178.308 241.638 C 185.652 238.609,186.851 236.260,182.216 233.978 C 177.130 231.474,174.010 228.083,171.396 222.217 C 169.527 218.023,169.762 217.366,172.984 217.763 C 180.721 218.717,181.742 218.498,180.240 216.205 C 179.261 214.711,177.743 214.137,174.000 213.844 C 167.945 213.370,160.518 211.036,154.806 207.812 C 152.336 206.418,152.112 206.470,148.360 209.300 M155.745 208.984 C 160.663 211.734,168.630 214.073,174.972 214.629 C 178.615 214.949,180.717 216.254,179.518 217.454 C 179.003 217.968,178.466 217.960,175.101 217.387 C 168.872 216.325,168.306 217.336,171.480 223.858 C 174.004 229.046,178.235 233.143,183.184 235.193 C 187.634 237.037,175.595 243.833,166.017 244.885 C 154.113 246.191,142.146 240.970,137.992 232.657 C 134.733 226.135,138.942 217.061,148.535 209.930 C 152.204 207.202,152.492 207.165,155.745 208.984 M193.074 217.450 C 187.664 222.798,187.533 222.896,186.080 222.683 C 185.266 222.564,182.766 222.183,180.524 221.837 C 174.775 220.948,174.011 221.568,176.337 225.237 C 184.056 237.408,214.344 237.408,222.063 225.237 C 224.389 221.568,223.625 220.948,217.876 221.837 C 215.634 222.183,213.141 222.563,212.336 222.681 C 210.905 222.891,210.747 222.772,205.339 217.448 C 202.295 214.452,199.531 212.000,199.196 212.000 C 198.861 212.000,196.106 214.453,193.074 217.450 M203.570 216.500 C 205.672 218.535,207.804 220.738,208.309 221.396 C 209.881 223.443,210.714 223.672,214.270 223.029 C 223.455 221.368,224.880 222.693,219.243 227.654 C 208.771 236.873,182.187 235.026,176.622 224.693 C 175.067 221.806,176.101 221.577,184.131 223.029 C 188.017 223.731,187.581 223.971,193.622 217.810 C 199.487 211.828,198.836 211.914,203.570 216.500 M271.280 218.080 C 269.859 219.501,271.508 221.700,273.138 220.558 C 274.524 219.588,274.028 217.600,272.400 217.600 C 272.048 217.600,271.544 217.816,271.280 218.080 M273.478 219.058 C 273.776 219.835,272.594 220.849,271.761 220.530 C 271.182 220.307,270.997 219.137,271.467 218.667 C 271.974 218.159,273.226 218.403,273.478 219.058 M123.859 224.335 C 123.040 225.240,123.020 225.845,123.800 226.145 C 124.130 226.271,124.400 226.760,124.400 227.230 C 124.400 227.875,124.230 228.021,123.712 227.822 C 123.334 227.676,123.152 227.686,123.309 227.842 C 123.465 227.998,123.425 228.329,123.219 228.577 C 122.513 229.428,123.339 229.979,124.234 229.254 C 125.282 228.405,125.781 225.313,125.033 224.304 C 124.544 223.644,124.483 223.645,123.859 224.335 M270.080 224.080 C 268.902 225.258,269.780 227.600,271.400 227.600 C 273.205 227.600,273.776 225.776,272.400 224.400 C 271.487 223.487,270.772 223.388,270.080 224.080 M271.920 224.880 C 272.609 225.569,272.511 226.782,271.742 227.078 C 270.804 227.438,269.908 226.119,270.430 225.145 C 270.893 224.278,271.254 224.214,271.920 224.880 M126.800 226.800 C 125.972 228.347,127.742 229.990,129.600 229.400 C 130.475 229.122,130.640 227.996,129.986 226.774 C 129.419 225.714,127.372 225.731,126.800 226.800 M128.967 226.643 C 129.894 226.999,129.796 228.800,128.849 228.800 C 127.705 228.800,126.977 227.751,127.600 227.000 C 128.171 226.312,128.131 226.322,128.967 226.643 M130.227 232.370 C 128.956 233.775,130.351 235.931,131.900 234.955 C 133.127 234.182,132.589 231.600,131.200 231.600 C 131.048 231.600,130.610 231.947,130.227 232.370 M132.400 233.627 C 132.400 234.373,131.192 234.892,130.600 234.400 C 129.830 233.761,129.844 233.413,130.673 232.584 C 131.329 231.928,132.400 232.575,132.400 233.627 M315.200 256.708 C 315.200 256.947,315.425 257.388,315.700 257.688 C 315.975 257.988,316.380 258.516,316.600 258.861 C 316.820 259.206,317.347 259.981,317.771 260.583 C 322.292 266.999,304.112 298.036,289.400 309.017 C 287.860 310.166,285.248 312.343,283.597 313.853 C 271.429 324.981,241.926 337.558,230.119 336.650 C 223.706 336.158,222.423 334.788,227.031 333.353 C 239.093 329.599,262.004 318.155,273.489 310.148 C 289.609 298.909,307.117 279.848,314.059 265.978 C 316.025 262.051,316.100 260.781,314.238 262.956 C 313.505 263.812,312.735 264.407,312.526 264.278 C 312.317 264.148,311.663 264.490,311.073 265.038 C 310.483 265.585,310.000 265.908,310.000 265.756 C 310.000 265.507,308.184 267.890,307.467 269.080 C 306.929 269.973,308.756 270.564,309.624 269.778 C 310.040 269.401,310.290 268.946,310.179 268.767 C 310.068 268.587,310.333 268.250,310.768 268.017 C 311.203 267.785,311.876 267.056,312.265 266.397 C 313.704 263.962,313.592 265.298,312.124 268.092 C 305.075 281.506,287.310 300.174,271.600 310.675 C 258.747 319.266,235.476 330.604,225.800 332.990 C 221.370 334.082,221.020 334.680,224.049 335.983 C 232.586 339.656,244.982 336.522,267.463 325.009 C 276.811 320.222,279.274 318.631,284.200 314.197 C 286.180 312.415,288.790 310.227,290.000 309.334 C 303.105 299.665,317.827 276.089,318.684 263.395 L 318.901 260.191 317.050 258.232 C 316.033 257.154,315.200 256.469,315.200 256.708 M247.616 258.371 C 246.779 259.934,248.349 261.284,249.985 260.408 C 250.821 259.960,250.984 259.344,250.557 258.233 C 250.206 257.317,248.127 257.415,247.616 258.371 M250.200 258.956 C 250.200 260.048,249.032 260.691,248.242 260.035 C 247.764 259.638,247.716 259.331,248.035 258.734 C 248.576 257.724,250.200 257.891,250.200 258.956 M243.478 262.314 C 242.126 263.808,242.988 265.800,244.870 265.531 C 246.000 265.369,246.782 263.497,246.144 262.479 C 245.539 261.515,244.272 261.436,243.478 262.314 M245.527 263.497 C 245.389 264.692,244.126 265.252,243.576 264.361 C 243.112 263.611,243.893 262.400,244.841 262.400 C 245.490 262.400,245.628 262.620,245.527 263.497 M154.880 263.680 C 153.278 265.282,155.454 267.512,157.384 266.248 C 159.105 265.120,158.485 263.200,156.400 263.200 C 155.828 263.200,155.144 263.416,154.880 263.680 M157.196 264.195 C 157.860 264.996,157.418 266.000,156.400 266.000 C 155.492 266.000,154.986 265.136,155.345 264.200 C 155.639 263.432,156.561 263.430,157.196 264.195 M150.506 264.747 C 150.539 265.186,150.709 265.456,150.883 265.349 C 151.057 265.241,151.203 265.478,151.206 265.876 C 151.211 266.478,151.275 266.501,151.584 266.012 C 152.200 265.037,152.576 265.924,152.002 266.997 C 151.535 267.869,151.563 268.096,152.224 268.827 L 152.980 269.661 153.292 268.531 C 153.578 267.495,153.432 266.877,152.413 264.800 C 151.938 263.833,150.434 263.791,150.506 264.747 M81.480 266.253 C 80.343 267.390,81.906 275.458,84.179 280.183 C 89.426 291.092,111.297 313.576,121.875 318.937 C 122.940 319.477,124.889 320.725,126.206 321.711 C 141.204 332.943,175.932 340.244,183.285 333.712 C 183.662 333.377,184.247 333.209,184.585 333.339 C 185.015 333.504,185.200 333.328,185.200 332.754 C 185.200 332.274,185.408 332.003,185.700 332.102 C 185.975 332.194,186.205 332.650,186.212 333.114 C 186.219 333.578,186.354 334.087,186.512 334.245 C 186.860 334.593,186.898 332.322,186.559 331.438 C 186.345 330.880,186.226 330.877,185.470 331.406 C 185.004 331.733,184.336 332.000,183.986 332.000 C 183.636 332.000,182.831 332.541,182.198 333.203 C 175.963 339.710,141.309 332.223,126.600 321.191 C 125.500 320.366,123.790 319.288,122.800 318.795 C 108.280 311.570,84.648 284.741,82.225 272.733 C 81.012 266.718,81.871 265.978,85.046 270.300 C 93.248 281.465,110.253 298.548,121.747 307.172 C 130.254 313.554,145.572 322.171,154.200 325.428 C 166.776 330.176,180.000 333.339,180.000 331.600 C 180.000 331.380,179.636 331.200,179.190 331.200 C 178.681 331.200,178.230 330.804,177.975 330.135 C 177.667 329.325,177.459 329.181,177.105 329.535 C 176.460 330.180,175.869 330.118,176.132 329.433 C 176.252 329.121,176.079 328.763,175.749 328.636 C 175.419 328.509,175.240 328.259,175.351 328.079 C 175.597 327.681,172.092 326.696,171.572 327.018 C 171.367 327.144,171.200 327.068,171.200 326.848 C 171.200 326.629,170.863 326.475,170.450 326.506 C 169.951 326.544,169.700 326.870,169.700 327.481 C 169.700 328.440,170.220 328.740,170.488 327.935 C 170.801 326.996,172.000 327.228,172.000 328.228 C 172.000 328.915,172.282 329.256,173.000 329.436 C 173.550 329.574,174.000 329.847,174.000 330.043 C 174.000 331.316,166.162 329.230,154.447 324.840 C 147.099 322.086,131.778 313.736,124.600 308.573 C 112.364 299.772,92.333 279.815,84.881 269.001 C 83.062 266.361,82.127 265.606,81.480 266.253 M160.667 266.267 C 160.170 266.764,160.397 268.699,161.012 269.210 C 161.845 269.901,163.600 269.106,163.600 268.037 C 163.600 266.616,161.553 265.381,160.667 266.267 M162.571 267.029 C 163.343 267.801,163.360 268.169,162.651 268.758 C 161.866 269.409,160.800 268.871,160.800 267.824 C 160.800 266.315,161.530 265.987,162.571 267.029 M205.700 276.265 C 205.017 276.540,205.068 278.193,205.778 278.782 C 206.699 279.546,208.181 279.138,208.331 278.078 C 208.556 276.489,207.296 275.621,205.700 276.265 M207.539 276.754 C 208.306 277.240,207.937 278.600,207.038 278.600 C 205.962 278.600,205.213 277.297,206.000 276.795 C 206.735 276.326,206.859 276.323,207.539 276.754 M199.442 277.320 C 198.969 277.665,198.776 278.234,198.866 279.020 C 199.054 280.675,201.219 280.954,202.204 279.450 C 203.457 277.538,201.358 275.918,199.442 277.320 M201.778 277.964 C 202.482 279.103,200.624 280.395,199.663 279.435 C 199.175 278.946,199.161 278.730,199.583 278.220 C 200.149 277.539,201.423 277.390,201.778 277.964 M196.800 282.795 C 196.800 283.144,198.059 284.000,198.574 284.000 C 199.182 284.000,198.685 283.276,197.800 282.873 C 197.229 282.612,196.800 282.579,196.800 282.795 M184.098 335.086 C 183.670 336.008,183.692 336.220,184.246 336.530 C 184.781 336.829,184.799 336.955,184.348 337.241 C 183.940 337.499,183.929 337.589,184.306 337.594 C 185.137 337.604,186.445 335.136,185.935 334.521 C 185.265 333.714,184.647 333.905,184.098 335.086 M220.926 336.970 C 220.551 337.398,220.674 337.707,221.514 338.455 C 222.098 338.975,222.381 339.130,222.142 338.800 C 221.904 338.470,221.745 337.795,221.788 337.300 C 221.877 336.282,221.617 336.183,220.926 336.970 " stroke="none" fill="#5e5b58" fill-rule="evenodd"></path><path id="path3" d="M197.811 127.846 C 197.010 128.647,197.205 129.362,198.266 129.519 C 199.409 129.689,200.259 128.594,199.600 127.800 C 198.965 127.035,198.613 127.045,197.811 127.846 M191.242 128.549 C 190.574 129.354,191.139 130.400,192.243 130.400 C 193.296 130.400,193.564 129.324,192.720 128.480 C 192.101 127.861,191.802 127.875,191.242 128.549 M152.272 138.048 C 151.568 138.457,151.568 138.489,152.272 139.023 C 153.360 139.847,154.014 139.723,153.861 138.721 C 153.700 137.669,153.252 137.479,152.272 138.048 M236.143 138.605 C 235.877 139.299,236.652 140.400,237.406 140.400 C 238.040 140.400,238.451 139.398,238.145 138.600 C 237.846 137.820,236.442 137.824,236.143 138.605 M241.867 141.467 C 241.364 141.969,241.600 142.772,242.372 143.185 C 243.298 143.681,244.502 142.730,244.140 141.788 C 243.912 141.194,242.359 140.974,241.867 141.467 M154.085 142.475 C 153.401 143.159,153.482 144.380,154.231 144.667 C 155.179 145.031,156.295 143.757,155.765 142.916 C 155.203 142.026,154.673 141.887,154.085 142.475 M149.084 147.050 C 148.314 147.819,148.817 148.851,149.900 148.727 C 150.691 148.636,151.000 148.375,151.000 147.800 C 151.000 146.996,149.661 146.472,149.084 147.050 M266.944 173.001 C 266.604 173.888,267.824 175.136,268.435 174.525 C 269.057 173.903,268.723 172.635,267.894 172.475 C 267.511 172.401,267.084 172.638,266.944 173.001 M190.922 175.829 L 189.800 176.858 191.100 175.954 C 191.815 175.457,192.400 174.993,192.400 174.925 C 192.400 174.609,191.958 174.880,190.922 175.829 M206.000 174.911 C 206.000 174.987,206.585 175.478,207.300 176.001 C 208.104 176.590,208.384 176.687,208.033 176.255 C 207.500 175.599,206.000 174.607,206.000 174.911 M124.300 176.445 C 123.490 176.902,122.226 179.159,122.581 179.514 C 123.154 180.087,124.400 179.969,124.400 179.342 C 124.400 178.982,124.644 178.488,124.942 178.244 C 125.780 177.557,125.202 175.936,124.300 176.445 M270.100 178.287 C 269.373 178.548,269.487 180.271,270.251 180.564 C 270.995 180.850,272.000 180.161,272.000 179.365 C 272.000 178.719,270.798 178.037,270.100 178.287 M181.760 179.546 C 171.806 186.857,173.314 205.552,184.838 217.686 C 186.600 219.541,186.925 219.555,188.640 217.840 C 190.466 216.014,190.375 215.525,187.751 213.089 C 182.081 207.824,180.199 203.263,180.204 194.800 C 180.209 187.416,180.994 184.120,183.423 181.281 C 185.743 178.571,184.646 177.426,181.760 179.546 M213.867 178.667 C 213.415 179.118,213.552 179.427,215.007 181.244 C 221.256 189.043,219.031 205.306,210.649 213.089 C 208.025 215.525,207.934 216.014,209.760 217.840 C 211.475 219.555,211.800 219.541,213.562 217.686 C 222.795 207.964,225.680 195.139,220.958 184.801 C 219.267 181.100,215.067 177.466,213.867 178.667 M127.080 180.253 C 126.595 180.738,126.775 181.881,127.420 182.417 C 128.323 183.166,129.588 181.906,128.950 180.892 C 128.473 180.135,127.523 179.810,127.080 180.253 M180.888 183.488 C 176.673 193.312,178.931 205.307,186.448 213.011 C 189.101 215.730,189.165 215.918,187.862 217.142 C 186.569 218.356,186.183 218.098,183.075 213.933 C 175.803 204.188,174.072 194.223,178.129 185.469 C 179.923 181.597,182.491 179.754,180.888 183.488 M219.999 184.944 C 224.389 193.880,222.762 203.966,215.325 213.933 C 212.217 218.098,211.831 218.356,210.538 217.142 C 209.253 215.934,209.330 215.628,211.442 213.583 C 219.121 206.150,221.625 195.077,217.950 184.800 C 216.513 180.783,216.529 181.004,217.737 181.796 C 218.318 182.176,219.336 183.593,219.999 184.944 M125.745 187.000 C 125.428 187.826,125.857 188.800,126.538 188.800 C 127.339 188.800,128.132 187.721,127.857 187.005 C 127.557 186.224,126.044 186.220,125.745 187.000 M204.704 190.100 C 203.812 191.465,202.327 194.461,202.472 194.604 C 202.542 194.674,203.266 193.486,204.081 191.965 C 205.549 189.222,205.834 188.371,204.704 190.100 M194.682 192.589 C 195.273 193.793,195.823 194.711,195.905 194.629 C 196.084 194.449,194.067 190.400,193.798 190.400 C 193.694 190.400,194.092 191.385,194.682 192.589 M202.400 201.934 C 202.400 202.108,202.963 202.779,203.650 203.425 C 204.338 204.071,205.234 205.320,205.642 206.200 C 206.049 207.080,206.386 207.563,206.391 207.274 C 206.396 206.984,206.194 206.354,205.943 205.874 C 205.389 204.813,202.400 201.490,202.400 201.934 M193.513 204.300 C 192.696 205.237,191.996 206.626,192.016 207.274 C 192.024 207.563,192.302 207.175,192.633 206.412 C 192.965 205.648,193.525 204.703,193.880 204.312 C 194.234 203.920,194.434 203.600,194.324 203.600 C 194.214 203.600,193.849 203.915,193.513 204.300 M195.644 211.004 C 193.525 212.688,192.990 212.738,192.465 211.300 C 192.244 210.695,192.049 210.481,192.032 210.824 C 191.916 213.111,193.664 213.182,196.200 210.993 C 198.279 209.199,197.905 209.206,195.644 211.004 M202.200 210.929 C 204.698 213.185,206.486 213.140,206.368 210.824 C 206.351 210.481,206.156 210.695,205.935 211.300 C 205.446 212.638,204.815 212.684,203.331 211.491 C 201.211 209.786,200.596 209.480,202.200 210.929 M271.467 218.667 C 270.997 219.137,271.182 220.307,271.761 220.530 C 272.594 220.849,273.776 219.835,273.478 219.058 C 273.226 218.403,271.974 218.159,271.467 218.667 M270.430 225.145 C 269.908 226.119,270.804 227.438,271.742 227.078 C 272.511 226.782,272.609 225.569,271.920 224.880 C 271.254 224.214,270.893 224.278,270.430 225.145 M122.800 227.028 C 122.800 228.158,122.954 228.752,123.207 228.596 C 123.430 228.458,123.511 228.179,123.386 227.977 C 123.261 227.775,123.438 227.716,123.779 227.847 C 124.705 228.203,124.570 226.723,123.600 225.893 C 122.817 225.222,122.800 225.246,122.800 227.028 M127.600 227.000 C 126.977 227.751,127.705 228.800,128.849 228.800 C 129.796 228.800,129.894 226.999,128.967 226.643 C 128.131 226.322,128.171 226.312,127.600 227.000 M130.673 232.584 C 129.844 233.413,129.830 233.761,130.600 234.400 C 131.761 235.364,132.808 233.910,131.873 232.632 C 131.379 231.957,131.304 231.954,130.673 232.584 M248.035 258.734 C 247.716 259.331,247.764 259.638,248.242 260.035 C 249.032 260.691,250.200 260.048,250.200 258.956 C 250.200 257.891,248.576 257.724,248.035 258.734 M243.642 263.122 C 243.144 264.052,243.684 264.919,244.648 264.736 C 245.766 264.524,245.941 262.400,244.841 262.400 C 244.394 262.400,243.854 262.725,243.642 263.122 M155.345 264.200 C 154.986 265.136,155.492 266.000,156.400 266.000 C 157.418 266.000,157.860 264.996,157.196 264.195 C 156.561 263.430,155.639 263.432,155.345 264.200 M150.505 265.661 C 150.472 266.103,150.626 266.942,150.847 267.524 L 151.249 268.582 151.880 267.280 C 152.517 265.965,152.274 264.922,151.584 266.012 C 151.269 266.510,151.211 266.496,151.206 265.924 C 151.197 264.941,150.577 264.708,150.505 265.661 M161.067 266.667 C 160.551 267.183,160.807 268.717,161.451 268.964 C 162.099 269.213,163.200 268.593,163.200 267.980 C 163.200 267.112,161.604 266.129,161.067 266.667 M206.000 276.795 C 205.213 277.297,205.962 278.600,207.038 278.600 C 207.937 278.600,208.306 277.240,207.539 276.754 C 206.859 276.323,206.735 276.326,206.000 276.795 M199.583 278.220 C 199.161 278.730,199.175 278.946,199.663 279.435 C 200.333 280.104,201.420 279.846,201.770 278.933 C 202.278 277.610,200.556 277.048,199.583 278.220 " stroke="none" fill="#7c7c64" fill-rule="evenodd"></path><path id="path4" d="M195.600 173.819 C 188.385 175.827,187.374 180.476,192.463 188.249 C 197.300 195.638,197.944 200.705,194.443 203.825 C 192.361 205.679,191.558 208.612,192.439 211.140 C 193.006 212.766,193.383 212.729,195.951 210.800 C 197.253 209.822,198.515 209.200,199.200 209.200 C 199.885 209.200,201.147 209.822,202.449 210.800 C 205.017 212.729,205.394 212.766,205.961 211.140 C 206.852 208.584,206.130 206.024,203.835 203.600 C 200.513 200.091,201.147 195.596,206.015 188.138 C 209.549 182.725,210.029 178.654,207.422 176.200 C 204.863 173.791,199.546 172.720,195.600 173.819 M202.216 174.618 C 209.391 176.476,210.032 180.108,204.689 188.643 C 202.080 192.810,200.800 195.945,200.800 198.166 C 200.800 198.867,200.605 199.635,200.367 199.873 C 200.056 200.184,200.177 200.574,200.794 201.253 C 203.449 204.176,205.219 206.697,205.439 207.868 C 205.934 210.504,204.842 212.096,203.581 210.577 C 201.343 207.880,198.667 207.633,195.758 209.853 C 193.565 211.527,193.298 211.528,192.986 209.865 C 192.660 208.130,193.609 205.861,195.377 204.143 C 198.864 200.757,198.158 195.331,193.255 187.838 C 188.429 180.462,189.264 176.446,196.000 174.642 C 198.845 173.880,199.361 173.878,202.216 174.618 " stroke="none" fill="#ad5852" fill-rule="evenodd"></path><path id="path5" d="M195.000 65.014 C 192.800 65.295,189.516 65.541,187.703 65.562 C 167.210 65.798,135.652 81.549,137.704 90.517 C 138.167 92.539,139.177 93.189,138.898 91.285 C 138.772 90.429,138.951 90.056,139.667 89.679 C 141.274 88.833,143.167 88.423,143.438 88.862 C 143.731 89.335,146.691 89.069,147.241 88.519 C 148.250 87.510,146.226 86.770,144.167 87.395 C 135.938 89.891,143.709 85.161,153.600 81.654 C 181.654 71.704,216.334 71.717,251.104 81.689 C 257.258 83.454,257.564 83.456,256.662 81.737 C 253.968 76.600,244.724 71.940,231.089 68.843 C 214.516 65.080,203.585 63.920,195.000 65.014 M209.490 65.784 C 227.460 67.903,243.458 72.139,250.000 76.510 C 253.635 78.940,256.612 82.470,254.500 81.847 C 244.820 78.992,234.082 76.693,223.600 75.232 C 221.950 75.002,219.340 74.632,217.800 74.410 C 194.328 71.026,164.156 75.248,144.299 84.694 C 139.094 87.170,138.279 87.184,140.626 84.759 C 149.991 75.079,171.230 67.133,190.753 66.006 C 194.357 65.798,197.402 65.532,197.519 65.414 C 197.929 65.004,204.634 65.211,209.490 65.784 M290.089 109.756 C 290.249 110.589,290.149 110.810,289.648 110.734 C 289.291 110.680,288.619 110.847,288.153 111.104 C 287.687 111.361,287.182 111.449,287.031 111.298 C 286.881 111.148,286.876 111.334,287.022 111.712 C 287.337 112.533,287.387 112.540,288.404 111.905 C 289.579 111.171,292.050 113.691,291.728 115.295 C 291.604 115.915,291.328 116.279,291.092 116.134 C 290.849 115.983,290.796 116.071,290.966 116.345 C 291.125 116.602,291.387 116.732,291.548 116.632 C 291.708 116.533,292.069 116.819,292.349 117.268 C 292.631 117.718,292.667 117.965,292.430 117.818 C 291.624 117.320,291.998 117.849,293.285 119.025 C 293.991 119.671,294.349 119.909,294.080 119.553 C 293.686 119.033,293.709 118.808,294.195 118.404 C 295.021 117.718,294.954 117.064,293.967 116.170 C 293.270 115.540,292.000 113.177,292.000 112.512 C 292.000 110.448,302.187 122.477,306.811 130.000 C 307.960 131.870,309.131 133.670,309.414 134.000 C 311.471 136.399,319.694 154.072,322.444 162.000 C 326.929 174.934,330.700 196.911,331.453 214.500 C 331.601 217.965,331.841 220.800,331.986 220.800 C 333.764 220.800,336.640 214.401,337.621 208.262 C 339.392 197.174,335.186 167.626,330.370 157.330 C 329.462 155.388,328.198 152.283,327.561 150.429 C 323.752 139.343,311.260 122.075,301.614 114.564 C 295.463 109.774,289.628 107.340,290.089 109.756 M295.748 111.465 C 307.654 118.576,324.162 139.485,326.961 151.000 C 327.122 151.660,328.076 154.000,329.082 156.200 C 331.828 162.205,332.692 165.083,334.190 173.200 C 338.270 195.320,338.137 211.236,333.819 217.828 C 332.713 219.516,332.565 218.975,332.041 211.300 C 331.237 199.549,329.747 188.828,327.236 176.739 C 322.661 154.710,309.388 128.527,295.515 114.161 C 293.582 112.159,292.000 110.404,292.000 110.261 C 292.000 109.634,293.475 110.107,295.748 111.465 M98.541 112.830 C 91.431 116.567,86.624 122.309,78.311 137.000 C 71.958 148.226,68.084 157.357,66.586 164.636 C 66.002 167.476,65.272 170.405,64.964 171.144 C 62.267 177.617,61.431 198.521,63.417 209.800 C 64.926 218.368,69.358 228.139,71.214 226.991 C 71.709 226.685,71.687 226.481,70.593 221.200 C 69.920 217.954,69.229 207.561,69.449 204.000 C 70.343 189.568,71.221 183.332,73.957 172.000 C 77.782 156.155,89.979 130.156,100.274 115.903 C 103.739 111.107,103.300 110.329,98.541 112.830 M100.750 113.700 C 100.486 114.195,99.338 115.950,98.199 117.600 C 90.773 128.352,80.282 149.495,76.030 162.281 C 69.491 181.943,67.423 202.170,69.853 222.700 C 70.675 229.641,65.570 218.003,64.209 209.833 C 62.005 196.596,62.719 179.436,65.838 170.714 C 66.176 169.771,66.873 166.906,67.387 164.346 C 69.743 152.625,83.572 126.719,91.649 118.897 C 96.083 114.602,102.096 111.168,100.750 113.700 M199.214 136.240 C 191.122 138.415,181.862 148.390,179.040 157.973 C 177.915 161.792,178.022 162.089,181.434 164.612 C 183.102 165.846,185.531 167.833,186.830 169.028 C 189.562 171.539,189.347 171.498,193.000 170.207 C 196.395 169.007,200.966 168.869,204.498 169.860 C 206.750 170.491,206.889 170.487,207.783 169.760 C 212.318 166.068,215.112 163.958,217.265 162.600 L 219.800 161.000 219.749 158.163 C 219.579 148.701,214.464 138.677,208.513 136.147 C 206.847 135.439,202.015 135.487,199.214 136.240 M209.462 137.502 C 214.798 141.301,218.414 148.618,218.999 156.800 C 219.287 160.823,219.401 160.617,215.600 162.927 C 213.950 163.930,211.278 165.875,209.663 167.249 L 206.725 169.747 204.197 169.074 C 200.519 168.094,197.205 168.205,193.140 169.446 L 189.680 170.502 185.899 167.351 C 183.819 165.618,181.441 163.681,180.614 163.047 C 175.762 159.328,185.846 143.312,196.388 137.996 C 200.269 136.039,207.047 135.782,209.462 137.502 M150.000 160.208 C 135.515 164.207,138.313 190.963,154.444 202.714 C 160.053 206.799,172.657 211.049,173.780 209.233 C 173.905 209.031,173.429 207.186,172.724 205.133 C 168.744 193.554,172.048 180.552,180.379 175.014 C 183.877 172.689,183.927 172.184,180.900 169.801 C 170.793 161.844,158.216 157.940,150.000 160.208 M162.200 160.950 C 167.640 162.420,172.979 165.082,179.090 169.371 C 182.538 171.793,182.839 172.324,181.365 173.400 C 177.644 176.117,176.818 176.872,175.140 179.086 C 170.660 184.998,169.152 194.738,171.437 203.000 C 173.317 209.795,173.515 209.592,166.800 207.766 C 146.891 202.349,134.824 179.182,144.389 164.741 C 146.927 160.911,155.388 159.109,162.200 160.950 M229.525 162.761 C 223.682 164.041,212.800 170.054,212.800 172.003 C 212.800 172.191,214.155 172.996,215.812 173.793 C 225.047 178.235,229.609 190.816,226.357 202.871 C 225.266 206.912,225.440 207.378,227.928 207.083 C 230.822 206.740,238.669 204.108,241.600 202.498 C 243.030 201.712,245.190 200.580,246.400 199.983 C 255.120 195.680,262.400 185.943,262.400 178.584 C 262.400 168.128,244.453 159.490,229.525 162.761 M245.928 163.969 C 256.178 166.942,263.084 174.414,261.594 180.918 C 259.923 188.214,253.560 195.605,245.452 199.670 C 243.663 200.566,241.748 201.619,241.197 202.008 C 239.787 203.004,230.864 205.983,228.427 206.271 C 226.061 206.552,226.130 206.794,227.245 202.132 C 230.114 190.133,225.630 178.152,216.436 173.251 C 213.672 171.779,213.665 171.525,216.324 169.497 C 224.103 163.565,236.534 161.243,245.928 163.969 M184.907 186.900 C 182.595 189.855,182.850 199.359,185.384 204.700 C 187.146 208.411,188.081 208.510,189.179 205.101 C 189.444 204.277,190.277 202.865,191.031 201.963 C 193.382 199.149,193.006 197.243,188.751 190.417 C 186.287 186.463,185.682 185.909,184.907 186.900 M209.649 190.417 C 204.711 198.339,204.728 199.528,209.862 205.047 C 213.323 208.768,216.381 199.295,214.564 190.483 C 213.465 185.152,212.934 185.145,209.649 190.417 M187.607 189.855 C 192.301 197.454,192.585 198.758,190.221 201.854 C 189.463 202.847,188.639 204.276,188.390 205.030 C 186.927 209.462,183.673 201.194,184.129 194.207 C 184.583 187.267,185.386 186.262,187.607 189.855 M213.611 189.100 C 214.323 191.483,214.553 197.545,214.025 200.000 C 212.830 205.561,211.295 206.484,208.997 203.022 C 208.185 201.799,207.359 200.698,207.161 200.576 C 206.288 200.037,206.810 196.599,208.105 194.355 C 212.306 187.075,212.850 186.555,213.611 189.100 M243.600 206.845 C 238.308 209.278,229.033 211.996,226.000 212.002 C 223.261 212.007,221.821 212.702,220.057 214.870 C 217.628 217.857,218.144 218.256,223.355 217.417 C 229.533 216.423,230.064 217.352,226.996 223.786 C 225.024 227.923,222.729 230.577,218.955 233.082 C 217.770 233.869,216.800 234.786,216.800 235.119 C 216.800 235.983,223.165 242.140,224.600 242.665 C 238.827 247.866,243.713 248.612,250.337 246.597 C 260.998 243.354,261.479 224.246,251.237 210.767 C 247.871 206.337,246.376 205.569,243.600 206.845 M248.993 209.334 C 260.322 221.260,261.061 242.115,250.288 245.872 C 246.512 247.189,238.686 246.899,234.200 245.276 C 232.220 244.559,229.700 243.687,228.600 243.338 C 224.615 242.071,223.657 241.475,220.555 238.330 L 217.400 235.132 218.390 234.466 C 223.200 231.229,226.004 227.921,228.176 222.922 C 230.890 216.675,229.346 215.352,221.300 217.029 C 219.556 217.393,219.556 216.473,221.300 214.569 C 222.475 213.288,222.892 213.114,225.600 212.779 C 231.172 212.089,239.757 209.608,243.593 207.580 C 245.811 206.406,246.390 206.594,248.993 209.334 M148.535 209.930 C 138.942 217.061,134.733 226.135,137.992 232.657 C 142.146 240.970,154.113 246.191,166.017 244.885 C 175.595 243.833,187.634 237.037,183.184 235.193 C 178.235 233.143,174.004 229.046,171.480 223.858 C 168.306 217.336,168.872 216.325,175.101 217.387 C 178.466 217.960,179.003 217.968,179.518 217.454 C 180.717 216.254,178.615 214.949,174.972 214.629 C 168.630 214.073,160.663 211.734,155.745 208.984 C 152.492 207.165,152.204 207.202,148.535 209.930 M155.351 209.562 C 160.262 212.347,167.000 214.391,174.114 215.253 C 176.754 215.573,178.147 215.917,178.287 216.284 C 178.640 217.203,178.243 217.244,174.791 216.645 C 168.332 215.525,167.449 217.205,170.846 224.153 C 173.351 229.277,177.142 233.078,182.100 235.435 C 184.537 236.594,183.085 238.281,177.700 240.548 C 176.325 241.126,174.165 242.039,172.900 242.575 C 157.971 248.906,135.151 238.351,137.649 226.271 C 138.779 220.810,142.397 215.573,148.071 211.188 C 152.152 208.034,152.515 207.953,155.351 209.562 M193.622 217.810 C 187.581 223.971,188.017 223.731,184.131 223.029 C 176.101 221.577,175.067 221.806,176.622 224.693 C 182.187 235.026,208.771 236.873,219.243 227.654 C 224.880 222.693,223.455 221.368,214.270 223.029 C 210.714 223.672,209.881 223.443,208.309 221.396 C 206.690 219.288,199.772 212.800,199.142 212.800 C 198.808 212.800,196.324 215.055,193.622 217.810 M204.635 218.727 C 210.723 224.719,210.350 224.518,214.088 223.828 C 222.184 222.334,223.013 222.799,219.070 226.618 C 210.367 235.048,188.013 235.027,179.293 226.582 C 175.617 223.022,176.752 222.396,184.312 223.818 C 188.060 224.523,187.730 224.701,193.784 218.721 C 196.635 215.904,199.070 213.600,199.196 213.600 C 199.323 213.600,201.770 215.907,204.635 218.727 M72.394 220.410 C 71.410 222.250,72.068 225.800,73.395 225.800 C 74.280 225.800,74.622 225.593,74.716 225.000 C 74.809 224.413,74.746 224.342,74.477 224.734 C 74.182 225.163,74.062 225.139,73.858 224.608 C 73.719 224.246,73.443 224.050,73.245 224.172 C 73.046 224.295,72.781 224.126,72.654 223.798 C 72.382 223.087,72.738 222.000,73.243 222.000 C 73.439 222.000,73.600 221.730,73.600 221.400 C 73.600 221.070,73.750 220.800,73.933 220.800 C 74.117 220.800,74.267 220.530,74.267 220.200 C 74.267 219.316,72.898 219.470,72.394 220.410 M314.800 257.130 C 314.800 257.394,315.016 257.957,315.281 258.381 C 315.846 259.285,315.053 261.200,314.113 261.200 C 313.810 261.200,313.120 261.676,312.581 262.258 C 312.041 262.841,311.595 263.156,311.588 262.958 C 311.581 262.761,311.394 262.911,311.173 263.292 C 310.951 263.672,310.789 264.093,310.811 264.228 C 310.834 264.363,310.526 264.721,310.127 265.024 C 309.727 265.327,309.601 265.580,309.846 265.587 C 310.091 265.594,310.742 265.246,311.292 264.813 C 311.843 264.380,312.418 264.151,312.570 264.304 C 312.723 264.456,313.460 263.865,314.209 262.991 C 316.098 260.783,316.035 262.030,314.059 265.978 C 307.117 279.848,289.609 298.909,273.489 310.148 C 262.004 318.155,239.093 329.599,227.031 333.353 C 222.423 334.788,223.706 336.158,230.119 336.650 C 241.926 337.558,271.429 324.981,283.597 313.853 C 285.248 312.343,287.860 310.166,289.400 309.017 C 304.112 298.036,322.292 266.999,317.771 260.583 C 317.347 259.981,316.820 259.208,316.600 258.866 C 315.804 257.628,314.800 256.660,314.800 257.130 M316.198 269.496 C 313.032 281.270,299.260 300.973,289.000 308.404 C 287.680 309.360,285.195 311.455,283.479 313.060 C 272.032 323.759,242.198 336.654,230.650 335.892 C 224.846 335.510,224.647 334.973,229.659 333.223 C 244.539 328.026,268.025 315.609,278.400 307.453 C 293.035 295.948,305.256 282.564,312.694 269.896 C 314.182 267.361,315.757 264.683,316.193 263.944 L 316.987 262.600 317.117 264.096 C 317.189 264.918,316.775 267.348,316.198 269.496 M81.853 268.433 C 81.035 272.523,84.731 281.213,90.343 288.400 C 100.729 301.699,114.660 314.745,122.800 318.795 C 123.790 319.288,125.500 320.366,126.600 321.191 C 141.309 332.223,175.963 339.710,182.198 333.203 C 182.831 332.541,183.656 332.000,184.031 332.000 C 185.238 332.000,186.750 330.518,185.885 330.181 C 185.450 330.012,184.889 330.157,184.452 330.553 C 182.860 331.994,179.243 330.583,179.573 328.650 C 179.606 328.458,179.182 328.387,178.631 328.492 C 178.079 328.597,177.577 328.535,177.514 328.354 C 177.348 327.873,175.637 327.726,175.725 328.200 C 175.766 328.420,175.949 328.550,176.130 328.490 C 176.312 328.429,176.345 328.744,176.203 329.190 C 175.920 330.083,176.381 330.259,177.105 329.535 C 177.459 329.181,177.667 329.325,177.975 330.135 C 178.230 330.804,178.681 331.200,179.190 331.200 C 179.636 331.200,180.000 331.380,180.000 331.600 C 180.000 333.339,166.776 330.176,154.200 325.428 C 145.572 322.171,130.254 313.554,121.747 307.172 C 110.253 298.548,93.248 281.465,85.046 270.300 C 82.505 266.841,82.207 266.667,81.853 268.433 M86.263 273.100 C 111.623 305.016,144.903 327.209,175.200 332.408 C 179.284 333.109,179.600 333.193,179.600 333.574 C 179.600 334.820,169.290 335.196,162.896 334.183 C 150.401 332.205,134.093 326.012,126.835 320.491 C 125.864 319.752,124.172 318.693,123.075 318.136 C 115.509 314.302,105.184 304.943,94.021 291.800 C 86.538 282.989,82.800 275.934,82.800 270.623 C 82.800 268.709,82.741 268.666,86.263 273.100 " stroke="none" fill="#787474" fill-rule="evenodd"></path></g></svg>